<?xml version="1.0" encoding="utf-8"?>
<!-- Generator: Adobe Illustrator 16.0.2, SVG Export Plug-In . SVG Version: 6.00 Build 0)  -->
<!DOCTYPE svg PUBLIC "-//W3C//DTD SVG 1.1//EN" "http://www.w3.org/Graphics/SVG/1.1/DTD/svg11.dtd">
<svg version="1.1" id="Layer_7" xmlns="http://www.w3.org/2000/svg" xmlns:xlink="http://www.w3.org/1999/xlink" x="0px" y="0px"
	 width="320px" height="130px" viewBox="0 0 320 130" enable-background="new 0 0 320 130" xml:space="preserve">
<g>
	<g opacity="0.75">
		
			<linearGradient id="SVGID_1_" gradientUnits="userSpaceOnUse" x1="-131.8623" y1="410.376" x2="-130.4632" y2="408.9769" gradientTransform="matrix(9.775 0 0 -7.054 1428.8319 2982.6445)">
			<stop  offset="0" style="stop-color:#FAC100"/>
			<stop  offset="0.5" style="stop-color:#FF9400"/>
			<stop  offset="1" style="stop-color:#FD2704"/>
		</linearGradient>
		<path fill="url(#SVGID_1_)" d="M148.959,91.976c0.161,0,0.241,0.13,0.241,0.396c0,0.262-0.081,0.486-0.241,0.675
			c-0.16,0.189-0.335,0.288-0.524,0.3c-0.188,0.016-0.383,0.035-0.583,0.07c-0.201,0.033-0.43,0.075-0.686,0.129
			c-0.256,0.058-0.489,0.133-0.702,0.226c-0.211,0.098-0.408,0.208-0.59,0.335c-0.398,0.268-0.596,0.636-0.596,1.102
			c0,0.311,0.074,0.581,0.219,0.811c0.146,0.229,0.337,0.412,0.575,0.535c0.457,0.242,0.963,0.361,1.517,0.361
			c0.852,0,1.939-0.191,3.264-0.577c0.076-0.024,0.142-0.033,0.197-0.033c0.161,0,0.242,0.09,0.242,0.255
			c0,0.316-0.303,0.618-0.905,0.919c-0.603,0.295-1.339,0.53-2.207,0.698s-1.688,0.257-2.46,0.257c-0.772,0-1.463-0.049-2.073-0.157
			c-0.61-0.105-1.149-0.259-1.619-0.471c-0.47-0.208-0.836-0.483-1.096-0.834c-0.259-0.349-0.391-0.746-0.391-1.197
			c0-0.455,0.127-0.865,0.385-1.223c0.256-0.361,0.594-0.664,1.013-0.895c0.418-0.237,0.906-0.437,1.46-0.601
			c1.046-0.293,2.2-0.442,3.461-0.442c-0.898-0.047-1.568-0.132-2.01-0.239c-0.442-0.114-0.791-0.225-1.047-0.328
			c-0.256-0.105-0.471-0.225-0.644-0.358c-0.398-0.304-0.597-0.684-0.597-1.141c0-0.462,0.162-0.882,0.485-1.271
			c0.325-0.389,0.753-0.705,1.286-0.952c1.105-0.512,2.388-0.768,3.848-0.768c1.985,0,3.349,0.234,4.09,0.707
			c0.16,0.103,0.241,0.257,0.241,0.455c0,0.199-0.138,0.529-0.415,0.989c-0.276,0.457-0.502,0.773-0.674,0.947
			c-0.171,0.174-0.331,0.263-0.476,0.263s-0.279-0.057-0.397-0.168c-0.118-0.11-0.212-0.248-0.279-0.418
			c-0.461-1.102-1.173-1.647-2.133-1.647c-0.56,0-1.03,0.161-1.414,0.482c-0.383,0.322-0.574,0.711-0.574,1.172
			c0,0.459,0.222,0.856,0.664,1.188c0.442,0.332,0.98,0.494,1.615,0.494L148.959,91.976z"/>
		
			<linearGradient id="SVGID_2_" gradientUnits="userSpaceOnUse" x1="-132.9048" y1="386.3057" x2="-131.5199" y2="384.9208" gradientTransform="matrix(10.675 0 0 -4.817 1569.2832 1952.5)">
			<stop  offset="0" style="stop-color:#FAC100"/>
			<stop  offset="0.5" style="stop-color:#FF9400"/>
			<stop  offset="1" style="stop-color:#FD2704"/>
		</linearGradient>
		<path fill="url(#SVGID_2_)" d="M165.011,96.242c0.158,0,0.234,0.077,0.234,0.23c0,0.155-0.077,0.292-0.232,0.409
			c-0.153,0.116-0.38,0.25-0.682,0.401c-0.301,0.152-0.675,0.316-1.121,0.492c-0.445,0.182-0.962,0.334-1.548,0.461
			c-0.587,0.129-1.15,0.193-1.681,0.193c-1.258,0-1.887-0.304-1.887-0.917c0-0.393,0.213-1.098,0.639-2.116
			c0.426-1.018,0.639-1.701,0.639-2.057c0-0.4-0.295-0.599-0.884-0.599c-0.267,0-0.569,0.033-0.908,0.105
			c-0.16,0.604-0.448,1.56-0.861,2.866c-0.413,1.304-0.646,2.054-0.698,2.232c-0.052,0.178-0.167,0.27-0.339,0.27l-3.27,0.075
			c-0.046,0-0.099-0.033-0.156-0.091c-0.057-0.062-0.085-0.137-0.085-0.219c0-0.085,0.091-0.375,0.271-0.881
			c0.179-0.503,0.378-1.049,0.596-1.63c0.218-0.582,0.417-1.223,0.597-1.917c0.18-0.698,0.27-1.277,0.27-1.734l-0.006-0.256
			c0-0.226,0.205-0.339,0.616-0.339l3.011-0.072c0.109,0,0.191,0.033,0.247,0.103c0.055,0.068,0.084,0.157,0.084,0.256
			c0,0.097-0.024,0.263-0.07,0.484c1.49-0.66,2.714-0.99,3.671-0.99c0.404,0,0.775,0.116,1.109,0.353
			c0.374,0.267,0.559,0.67,0.559,1.204c0,0.552-0.197,1.275-0.589,2.168c-0.395,0.892-0.588,1.445-0.588,1.656
			c0,0.419,0.154,0.623,0.469,0.623c0.197,0,0.535-0.081,1.018-0.237c0.481-0.16,0.838-0.29,1.067-0.392
			C164.731,96.295,164.9,96.242,165.011,96.242z"/>
		
			<linearGradient id="SVGID_3_" gradientUnits="userSpaceOnUse" x1="-128.2603" y1="422.3584" x2="-126.8652" y2="420.9633" gradientTransform="matrix(7.928 0 0 -9.224 1177.6498 3983.9849)">
			<stop  offset="0" style="stop-color:#FAC100"/>
			<stop  offset="0.5" style="stop-color:#FF9400"/>
			<stop  offset="1" style="stop-color:#FD2704"/>
		</linearGradient>
		<path fill="url(#SVGID_3_)" d="M171.469,96.242c0.191,0,0.284,0.093,0.284,0.276c0,0.253-0.537,0.566-1.612,0.94
			c-0.67,0.238-1.367,0.422-2.102,0.553c-0.097,0.375-0.229,0.833-0.393,1.365c-0.244,0.786-0.61,1.352-1.098,1.7
			c-0.485,0.348-1.151,0.518-1.998,0.518c-0.841,0-1.518-0.109-2.021-0.338c-0.328-0.146-0.486-0.315-0.486-0.521
			c0-0.204,0.109-0.306,0.33-0.306l0.435,0.032c0.321,0,0.638-0.354,0.948-1.065c0.185-0.429,0.435-1.143,0.741-2.142
			c0.609-2.014,1.096-3.899,1.458-5.668c0.024-0.136,0.067-0.228,0.124-0.288c0.059-0.056,0.177-0.084,0.354-0.084l3.087-0.075
			c0.11,0,0.199,0.03,0.271,0.087c0.069,0.057,0.104,0.136,0.104,0.232c0,0.096-0.044,0.264-0.133,0.499
			c-0.087,0.235-0.18,0.485-0.271,0.744c-0.092,0.262-0.18,0.539-0.269,0.822c-0.083,0.29-0.158,0.521-0.212,0.696
			c-0.056,0.175-0.126,0.428-0.208,0.757c-0.086,0.325-0.142,0.543-0.167,0.641c-0.025,0.101-0.083,0.342-0.178,0.714
			c-0.088,0.373-0.141,0.589-0.155,0.636c0.974-0.064,1.814-0.235,2.533-0.524C171.178,96.313,171.39,96.242,171.469,96.242z
			 M170.605,88.673c0,0.481-0.251,0.896-0.751,1.252c-0.503,0.354-1.032,0.534-1.588,0.534c-0.559,0-0.99-0.118-1.299-0.356
			c-0.31-0.239-0.465-0.535-0.465-0.878c0-0.348,0.117-0.661,0.356-0.94c0.235-0.281,0.542-0.502,0.924-0.667
			c0.379-0.16,0.79-0.241,1.233-0.241c0.445,0,0.82,0.123,1.127,0.373C170.452,87.993,170.605,88.302,170.605,88.673z"/>
		
			<linearGradient id="SVGID_4_" gradientUnits="userSpaceOnUse" x1="-132.2515" y1="386.1367" x2="-130.815" y2="384.7003" gradientTransform="matrix(10.417 0 0 -4.805 1547.0574 1946.9802)">
			<stop  offset="0" style="stop-color:#FAC100"/>
			<stop  offset="0.5" style="stop-color:#FF9400"/>
			<stop  offset="1" style="stop-color:#FD2704"/>
		</linearGradient>
		<path fill="url(#SVGID_4_)" d="M172.116,97.709c-0.795-0.505-1.193-1.276-1.193-2.307c0-0.539,0.104-1.046,0.313-1.517
			c0.211-0.476,0.495-0.881,0.864-1.229c0.366-0.347,0.791-0.642,1.278-0.888c0.975-0.496,2.089-0.744,3.345-0.744
			c2.476,0,3.805,0.831,4.007,2.487c0.297,0.102,0.601,0.156,0.916,0.156s0.581-0.027,0.791-0.072
			c0.211-0.052,0.411-0.123,0.601-0.227c0.187-0.096,0.323-0.15,0.401-0.15c0.164,0,0.241,0.084,0.241,0.251
			c0,0.164-0.128,0.339-0.377,0.518c-0.469,0.343-1.095,0.512-1.864,0.512c-0.291,0-0.532-0.017-0.711-0.046
			c-0.135,1.13-0.689,2.072-1.654,2.818c-0.461,0.358-1.027,0.642-1.698,0.85c-0.672,0.207-1.365,0.311-2.083,0.311
			c-0.717,0-1.332-0.062-1.844-0.179C172.942,98.132,172.498,97.951,172.116,97.709z M174.423,95.994
			c0,0.83,0.285,1.244,0.855,1.244c0.364,0,0.704-0.211,1.02-0.628c0.316-0.419,0.56-0.945,0.736-1.573
			c0.179-0.621,0.265-1.255,0.265-1.904c0-0.651-0.214-0.974-0.64-0.974c-0.372,0-0.733,0.183-1.083,0.557
			c-0.348,0.372-0.629,0.854-0.841,1.448C174.525,94.759,174.423,95.368,174.423,95.994z"/>
		
			<linearGradient id="SVGID_5_" gradientUnits="userSpaceOnUse" x1="-132.4292" y1="408.2979" x2="-131.0192" y2="406.8878" gradientTransform="matrix(10.737 0 0 -6.807 1602.1375 2870.9927)">
			<stop  offset="0" style="stop-color:#FAC100"/>
			<stop  offset="0.5" style="stop-color:#FF9400"/>
			<stop  offset="1" style="stop-color:#FD2704"/>
		</linearGradient>
		<path fill="url(#SVGID_5_)" d="M194.277,96.242c0.158,0,0.233,0.077,0.233,0.228c0,0.301-0.539,0.692-1.623,1.174
			c-0.678,0.297-1.423,0.543-2.236,0.727c-0.101,0.3-0.19,0.564-0.273,0.799c-0.08,0.231-0.231,0.49-0.439,0.78
			c-0.215,0.289-0.466,0.527-0.756,0.72c-0.29,0.193-0.601,0.353-0.935,0.483s-0.706,0.234-1.119,0.307
			c-0.75,0.136-1.627,0.202-2.632,0.202s-1.779-0.116-2.322-0.354c-0.54-0.235-0.813-0.582-0.813-1.03
			c0-0.258,0.104-0.493,0.317-0.708c0.213-0.21,0.487-0.385,0.829-0.533c0.34-0.143,0.775-0.274,1.305-0.389
			c0.9-0.193,2.033-0.354,3.396-0.48c0.115-0.4,0.198-0.735,0.248-1.001c-1.233,0.483-2.363,0.729-3.393,0.729
			c-1.378,0-2.067-0.482-2.067-1.446c0-0.676,0.189-1.514,0.574-2.516c0.385-0.997,0.577-1.701,0.577-2.101l-0.005-0.255
			c0-0.225,0.205-0.343,0.614-0.343l1.481,0.032l1.34-0.101c0.113,0,0.192,0.034,0.248,0.104c0.055,0.071,0.079,0.189,0.079,0.364
			c0,0.171-0.063,0.473-0.184,0.9c-0.128,0.426-0.264,0.831-0.41,1.199c-0.403,0.998-0.604,1.674-0.604,2.022
			c0,0.198,0.07,0.348,0.203,0.452c0.137,0.098,0.314,0.154,0.536,0.154c0.466,0,0.897-0.136,1.303-0.411
			c0.452-1.298,0.87-2.738,1.25-4.331c0.038-0.164,0.15-0.245,0.334-0.245c0.615,0,1.272-0.034,1.976-0.105
			c0.7-0.069,1.103-0.104,1.207-0.104c0.104,0,0.183,0.029,0.244,0.084c0.061,0.051,0.087,0.103,0.087,0.157
			c0,0.191-0.633,2.214-1.897,6.064c0.628-0.158,1.207-0.345,1.749-0.56c0.541-0.222,0.908-0.382,1.104-0.489
			C194.01,96.297,194.165,96.242,194.277,96.242z M186.667,99.864c0.122-0.329,0.229-0.639,0.315-0.933
			c-1.906,0.257-2.855,0.727-2.855,1.399c0,0.174,0.084,0.341,0.256,0.493c0.173,0.158,0.345,0.23,0.518,0.23
			c0.386,0,0.745-0.102,1.081-0.313C186.313,100.54,186.542,100.246,186.667,99.864z"/>
		
			<linearGradient id="SVGID_6_" gradientUnits="userSpaceOnUse" x1="-129.7759" y1="386.2109" x2="-128.4008" y2="384.8358" gradientTransform="matrix(9.131 0 0 -4.808 1382.0165 1948.3638)">
			<stop  offset="0" style="stop-color:#FAC100"/>
			<stop  offset="0.5" style="stop-color:#FF9400"/>
			<stop  offset="1" style="stop-color:#FD2704"/>
		</linearGradient>
		<path fill="url(#SVGID_6_)" d="M202.793,98.423c-0.105,0.003-0.264,0.007-0.469,0.007c-0.976,0-1.894-0.098-2.753-0.29
			c-0.861-0.194-1.37-0.418-1.528-0.675c-0.05-0.081-0.077-0.179-0.077-0.302c0-0.12,0.137-0.313,0.407-0.581
			c0.272-0.269,0.457-0.402,0.559-0.402c0.101,0,0.206,0.039,0.314,0.117c0.11,0.08,0.229,0.173,0.358,0.288
			c0.132,0.11,0.279,0.225,0.438,0.339c0.384,0.271,0.849,0.406,1.393,0.406c0.215,0,0.389-0.061,0.523-0.175
			c0.132-0.114,0.201-0.265,0.201-0.44c0-0.175-0.058-0.33-0.17-0.46s-0.258-0.243-0.438-0.343c-0.179-0.1-0.378-0.193-0.59-0.291
			c-0.215-0.098-0.435-0.201-0.65-0.315c-0.219-0.113-0.42-0.236-0.6-0.373c-0.402-0.3-0.603-0.674-0.603-1.121
			c0-0.448,0.128-0.834,0.384-1.163c0.256-0.328,0.581-0.591,0.969-0.789c0.388-0.196,0.832-0.36,1.32-0.497
			c0.863-0.227,1.68-0.343,2.446-0.343c0.771,0,1.485,0.039,2.148,0.123c0.662,0.084,1.116,0.205,1.368,0.364
			c0.068,0.039,0.101,0.149,0.101,0.319c0,0.171-0.058,0.419-0.173,0.74c-0.116,0.319-0.259,0.616-0.435,0.887
			c-0.175,0.272-0.332,0.408-0.477,0.408c-0.055,0-0.101-0.025-0.136-0.075c-0.402-0.512-0.79-0.903-1.173-1.182
			c-0.38-0.278-0.79-0.417-1.233-0.417c-0.339,0-0.584,0.075-0.73,0.222c-0.146,0.147-0.22,0.293-0.22,0.454
			c0,0.158,0.081,0.307,0.244,0.452c0.164,0.146,0.367,0.275,0.61,0.392c0.243,0.113,0.507,0.249,0.793,0.407
			c0.283,0.157,0.55,0.311,0.79,0.473c0.244,0.16,0.447,0.358,0.61,0.601c0.163,0.236,0.244,0.544,0.244,0.905
			s-0.128,0.72-0.378,1.063c1.05-0.226,1.87-0.503,2.465-0.827c0.101-0.062,0.188-0.092,0.262-0.092
			c0.162,0,0.238,0.088,0.238,0.257c0,0.144-0.078,0.277-0.246,0.395c-0.165,0.117-0.436,0.265-0.819,0.431
			c-0.383,0.167-0.833,0.337-1.356,0.507C205.508,98.224,204.194,98.423,202.793,98.423z"/>
		
			<linearGradient id="SVGID_7_" gradientUnits="userSpaceOnUse" x1="-132.0498" y1="407.0928" x2="-130.6597" y2="405.7026" gradientTransform="matrix(10.685 0 0 -6.653 1616.3256 2797.9841)">
			<stop  offset="0" style="stop-color:#FAC100"/>
			<stop  offset="0.5" style="stop-color:#FF9400"/>
			<stop  offset="1" style="stop-color:#FD2704"/>
		</linearGradient>
		<path fill="url(#SVGID_7_)" d="M211.241,88.192l2.905-0.021c0.099,0,0.181,0.032,0.24,0.099c0.062,0.063,0.09,0.17,0.09,0.319
			c0,0.146-0.085,0.58-0.26,1.303c-0.174,0.721-0.369,1.424-0.585,2.114c0.553-0.25,1.166-0.479,1.842-0.68
			c0.672-0.206,1.277-0.305,1.814-0.305c0.406,0,0.776,0.119,1.109,0.355c0.373,0.265,0.558,0.668,0.558,1.201
			c0,0.534-0.194,1.254-0.589,2.162c-0.391,0.905-0.588,1.483-0.588,1.736c0,0.366,0.167,0.55,0.501,0.55
			c0.66,0,1.405-0.224,2.241-0.679c0.128-0.071,0.23-0.106,0.311-0.106c0.177,0,0.261,0.082,0.261,0.245
			c0,0.164-0.096,0.31-0.285,0.438c-0.194,0.126-0.436,0.263-0.728,0.41c-0.294,0.147-0.66,0.308-1.101,0.481
			c-1.027,0.409-2.126,0.612-3.293,0.612c-1.17,0-1.754-0.305-1.754-0.917c0-0.396,0.213-1.101,0.639-2.116
			c0.423-1.018,0.638-1.702,0.638-2.057c0-0.424-0.293-0.641-0.884-0.641c-0.326,0-0.646,0.055-0.964,0.161
			c-0.698,2.174-1.199,3.877-1.506,5.108c-0.025,0.085-0.072,0.148-0.142,0.187c-0.078,0.039-0.139,0.06-0.194,0.06l-3.27,0.075
			c-0.049,0-0.101-0.033-0.156-0.093c-0.059-0.06-0.085-0.136-0.085-0.226c0-0.089,0.136-0.541,0.409-1.353
			c0.274-0.811,0.573-1.696,0.9-2.646c0.329-0.951,0.63-1.94,0.901-2.968c0.273-1.028,0.409-1.793,0.409-2.295l-0.005-0.187
			C210.624,88.305,210.83,88.192,211.241,88.192z"/>
		
			<linearGradient id="SVGID_8_" gradientUnits="userSpaceOnUse" x1="-131.3857" y1="386.1357" x2="-129.9492" y2="384.6992" gradientTransform="matrix(10.419 0 0 -4.805 1587.6295 1946.9802)">
			<stop  offset="0" style="stop-color:#FAC100"/>
			<stop  offset="0.5" style="stop-color:#FF9400"/>
			<stop  offset="1" style="stop-color:#FD2704"/>
		</linearGradient>
		<path fill="url(#SVGID_8_)" d="M221.457,97.709c-0.797-0.505-1.196-1.276-1.196-2.307c0-0.539,0.105-1.046,0.315-1.517
			c0.211-0.476,0.495-0.881,0.863-1.229c0.366-0.347,0.793-0.642,1.28-0.888c0.974-0.496,2.089-0.744,3.345-0.744
			c2.475,0,3.804,0.831,4.006,2.487c0.296,0.102,0.6,0.156,0.916,0.156c0.315,0,0.581-0.027,0.792-0.072
			c0.21-0.052,0.411-0.123,0.601-0.227c0.185-0.096,0.322-0.15,0.399-0.15c0.164,0,0.241,0.084,0.241,0.251
			c0,0.164-0.127,0.339-0.376,0.518c-0.472,0.343-1.096,0.512-1.865,0.512c-0.291,0-0.531-0.017-0.709-0.046
			c-0.136,1.13-0.69,2.072-1.654,2.818c-0.462,0.358-1.028,0.642-1.698,0.85c-0.675,0.207-1.365,0.311-2.084,0.311
			c-0.718,0-1.332-0.062-1.844-0.179C222.282,98.132,221.837,97.951,221.457,97.709z M223.763,95.994
			c0,0.83,0.284,1.244,0.856,1.244c0.363,0,0.703-0.211,1.019-0.628c0.315-0.419,0.56-0.945,0.737-1.573
			c0.178-0.621,0.264-1.255,0.264-1.904c0-0.651-0.214-0.974-0.64-0.974c-0.372,0-0.733,0.183-1.082,0.557
			c-0.35,0.372-0.631,0.854-0.841,1.448C223.868,94.759,223.763,95.368,223.763,95.994z"/>
		
			<linearGradient id="SVGID_9_" gradientUnits="userSpaceOnUse" x1="-132.3389" y1="408.1768" x2="-130.9853" y2="406.8232" gradientTransform="matrix(11.286 0 0 -6.799 1721.7551 2867.2163)">
			<stop  offset="0" style="stop-color:#FAC100"/>
			<stop  offset="0.5" style="stop-color:#FF9400"/>
			<stop  offset="1" style="stop-color:#FD2704"/>
		</linearGradient>
		<path fill="url(#SVGID_9_)" d="M233,91.232l2.884-0.072c0.109,0,0.189,0.033,0.245,0.103c0.057,0.071,0.081,0.151,0.081,0.235
			c0,0.087-0.017,0.235-0.043,0.451c-0.028,0.215-0.046,0.367-0.046,0.467c0.781-0.93,1.817-1.396,3.118-1.396
			c0.791,0,1.414,0.213,1.869,0.641c0.457,0.428,0.685,1.036,0.685,1.822c0,1.525-0.567,2.774-1.696,3.743
			c1.312-0.098,2.321-0.354,3.023-0.773c0.232-0.14,0.404-0.21,0.516-0.21c0.142,0,0.216,0.084,0.216,0.248
			c0,0.117-0.079,0.236-0.233,0.355c-0.721,0.535-1.646,0.93-2.778,1.187c-1.135,0.255-2.352,0.385-3.654,0.385
			c-0.16,0.009-0.28,0.013-0.363,0.013c-0.447,0-0.896-0.072-1.346-0.215c-0.449-0.147-0.822-0.35-1.119-0.607
			c-0.291,0.942-0.437,2.035-0.437,3.278l0.007,0.192c0,0.227-0.205,0.339-0.617,0.339l-2.951,0.083
			c-0.102,0-0.182-0.033-0.239-0.099c-0.06-0.063-0.091-0.138-0.091-0.218c0-0.768,0.396-2.258,1.19-4.467
			c0.791-2.208,1.191-3.689,1.191-4.438l-0.025-0.557c0-0.165,0.037-0.29,0.116-0.366C232.574,91.273,232.744,91.232,233,91.232z
			 M237.37,92.73c-0.795,0-1.459,0.645-1.995,1.937c-0.243,0.595-0.369,1.075-0.369,1.443c0,0.367,0.061,0.621,0.176,0.762
			c0.117,0.139,0.344,0.208,0.686,0.208c0.346,0,0.711-0.166,1.105-0.5c0.396-0.338,0.716-0.756,0.955-1.26
			c0.24-0.508,0.363-0.964,0.363-1.371c0-0.41-0.084-0.711-0.254-0.915C237.867,92.828,237.646,92.73,237.37,92.73z"/>
		
			<linearGradient id="SVGID_10_" gradientUnits="userSpaceOnUse" x1="-132.1421" y1="408.1758" x2="-130.7883" y2="406.822" gradientTransform="matrix(11.283 0 0 -6.799 1731.0601 2867.2163)">
			<stop  offset="0" style="stop-color:#FAC100"/>
			<stop  offset="0.5" style="stop-color:#FF9400"/>
			<stop  offset="1" style="stop-color:#FD2704"/>
		</linearGradient>
		<path fill="url(#SVGID_10_)" d="M244.921,91.232l2.883-0.072c0.11,0,0.193,0.033,0.248,0.103c0.056,0.071,0.082,0.151,0.082,0.235
			c0,0.087-0.02,0.235-0.046,0.451c-0.029,0.215-0.045,0.367-0.045,0.467c0.781-0.93,1.82-1.396,3.119-1.396
			c0.791,0,1.416,0.213,1.87,0.641s0.684,1.036,0.684,1.822c0,1.525-0.567,2.774-1.698,3.743c1.313-0.098,2.323-0.354,3.025-0.773
			c0.23-0.14,0.404-0.21,0.515-0.21c0.142,0,0.216,0.084,0.216,0.248c0,0.117-0.078,0.236-0.233,0.355
			c-0.72,0.535-1.646,0.93-2.78,1.187c-1.132,0.255-2.352,0.385-3.654,0.385c-0.159,0.009-0.281,0.013-0.36,0.013
			c-0.45,0-0.896-0.072-1.349-0.215c-0.447-0.147-0.82-0.35-1.117-0.607c-0.29,0.942-0.437,2.035-0.437,3.278l0.005,0.192
			c0,0.227-0.202,0.339-0.614,0.339l-2.951,0.083c-0.103,0-0.181-0.033-0.241-0.099c-0.06-0.063-0.086-0.138-0.086-0.218
			c0-0.768,0.393-2.258,1.187-4.467c0.792-2.208,1.189-3.689,1.189-4.438l-0.025-0.557c0-0.165,0.038-0.29,0.117-0.366
			C244.492,91.273,244.662,91.232,244.921,91.232z M249.289,92.73c-0.795,0-1.459,0.645-1.995,1.937
			c-0.244,0.595-0.368,1.075-0.368,1.443c0,0.367,0.06,0.621,0.176,0.762c0.116,0.139,0.343,0.208,0.686,0.208
			c0.342,0,0.71-0.166,1.104-0.5c0.396-0.338,0.715-0.756,0.954-1.26c0.241-0.508,0.364-0.964,0.364-1.371
			c0-0.41-0.084-0.711-0.254-0.915C249.786,92.831,249.564,92.73,249.289,92.73z"/>
		
			<linearGradient id="SVGID_11_" gradientUnits="userSpaceOnUse" x1="-120.1865" y1="411.1416" x2="-118.7935" y2="409.7485" gradientTransform="matrix(6.084 0 0 -7.17 985.126 3036.0632)">
			<stop  offset="0" style="stop-color:#FAC100"/>
			<stop  offset="0.5" style="stop-color:#FF9400"/>
			<stop  offset="1" style="stop-color:#FD2704"/>
		</linearGradient>
		<path fill="url(#SVGID_11_)" d="M259.311,97.024c0.284,0,0.68-0.074,1.169-0.221c0.491-0.148,0.85-0.277,1.077-0.389
			c0.228-0.114,0.383-0.173,0.472-0.173c0.179,0,0.268,0.096,0.268,0.286c0,0.085-0.067,0.18-0.198,0.29
			c-0.434,0.342-1.207,0.694-2.329,1.06c-1.122,0.367-2.12,0.552-3.004,0.552c-0.542,0-1.002-0.095-1.369-0.277
			c-0.369-0.184-0.551-0.466-0.551-0.843c0-0.227,0.182-0.791,0.551-1.683c0.692-1.693,1.042-2.966,1.042-3.821l-0.007-0.257
			c0-0.227,0.206-0.337,0.617-0.337l3.139-0.073c0.112,0,0.194,0.031,0.248,0.102c0.056,0.069,0.079,0.147,0.079,0.23
			c0,0.309-0.129,0.819-0.397,1.53c-0.268,0.712-0.535,1.409-0.799,2.096c-0.266,0.683-0.401,1.179-0.401,1.472
			C258.909,96.875,259.043,97.024,259.311,97.024z M261.096,88.673c0,0.481-0.252,0.896-0.754,1.252
			c-0.5,0.354-1.031,0.534-1.588,0.534c-0.558,0-0.991-0.118-1.3-0.356c-0.309-0.239-0.463-0.535-0.463-0.878
			c0-0.348,0.119-0.661,0.355-0.94c0.236-0.281,0.546-0.502,0.923-0.667c0.382-0.16,0.792-0.241,1.237-0.241
			c0.442,0,0.82,0.123,1.127,0.373C260.939,87.993,261.096,88.302,261.096,88.673z"/>
		
			<linearGradient id="SVGID_12_" gradientUnits="userSpaceOnUse" x1="-131.0322" y1="386.3057" x2="-129.6472" y2="384.9206" gradientTransform="matrix(10.675 0 0 -4.817 1658.2799 1952.5)">
			<stop  offset="0" style="stop-color:#FAC100"/>
			<stop  offset="0.5" style="stop-color:#FF9400"/>
			<stop  offset="1" style="stop-color:#FD2704"/>
		</linearGradient>
		<path fill="url(#SVGID_12_)" d="M273.997,96.242c0.157,0,0.234,0.077,0.234,0.23c0,0.155-0.078,0.292-0.231,0.409
			c-0.154,0.116-0.384,0.25-0.682,0.401c-0.302,0.152-0.675,0.316-1.122,0.492c-0.445,0.182-0.963,0.334-1.552,0.461
			c-0.587,0.129-1.146,0.193-1.678,0.193c-1.259,0-1.885-0.304-1.885-0.917c0-0.393,0.21-1.098,0.638-2.116
			c0.425-1.018,0.637-1.701,0.637-2.057c0-0.4-0.294-0.599-0.884-0.599c-0.265,0-0.568,0.033-0.908,0.105
			c-0.16,0.604-0.447,1.56-0.858,2.866c-0.413,1.307-0.646,2.054-0.697,2.232c-0.054,0.178-0.168,0.27-0.34,0.27l-3.271,0.075
			c-0.048,0-0.098-0.033-0.155-0.091c-0.058-0.062-0.086-0.137-0.086-0.219c0-0.085,0.091-0.375,0.272-0.881
			c0.179-0.503,0.382-1.049,0.594-1.63c0.222-0.582,0.421-1.223,0.599-1.917c0.179-0.698,0.269-1.277,0.269-1.734l-0.007-0.256
			c0-0.226,0.206-0.339,0.617-0.339l3.01-0.072c0.111,0,0.193,0.033,0.248,0.103c0.056,0.068,0.082,0.157,0.082,0.256
			c0,0.097-0.025,0.263-0.073,0.484c1.491-0.66,2.716-0.99,3.672-0.99c0.406,0,0.778,0.116,1.112,0.353
			c0.37,0.267,0.557,0.67,0.557,1.204c0,0.552-0.196,1.275-0.589,2.168c-0.393,0.892-0.591,1.445-0.591,1.656
			c0,0.419,0.157,0.623,0.471,0.623c0.198,0,0.538-0.081,1.019-0.237c0.483-0.16,0.84-0.29,1.067-0.392
			C273.717,96.295,273.887,96.242,273.997,96.242z"/>
		
			<linearGradient id="SVGID_13_" gradientUnits="userSpaceOnUse" x1="-130.6919" y1="409.042" x2="-129.2847" y2="407.6348" gradientTransform="matrix(10.602 0 0 -6.906 1657.4712 2916.5864)">
			<stop  offset="0" style="stop-color:#FAC100"/>
			<stop  offset="0.5" style="stop-color:#FF9400"/>
			<stop  offset="1" style="stop-color:#FD2704"/>
		</linearGradient>
		<path fill="url(#SVGID_13_)" d="M273.18,100.447c0-0.273,0.201-0.537,0.612-0.792c0.408-0.255,0.935-0.483,1.582-0.669
			c1.173-0.347,2.396-0.608,3.662-0.792c0.148-0.437,0.288-0.861,0.415-1.256c-0.453,0.354-0.96,0.633-1.524,0.834
			c-0.562,0.202-1.071,0.303-1.528,0.303c-0.459,0-0.842-0.04-1.155-0.124c-0.315-0.086-0.603-0.218-0.87-0.395
			c-0.572-0.386-0.857-1.021-0.857-1.906c0-0.886,0.229-1.686,0.675-2.395c0.448-0.711,1.057-1.259,1.825-1.652
			c0.769-0.392,1.638-0.589,2.612-0.589s1.729,0.226,2.264,0.676c0.384-0.126,0.833-0.237,1.345-0.337
			c0.51-0.097,0.908-0.145,1.199-0.145c0.289,0,0.535,0.074,0.736,0.226c0.201,0.147,0.302,0.313,0.302,0.506
			c0,0.189-0.063,0.481-0.185,0.867c-0.127,0.388-0.338,1.031-0.642,1.934s-0.595,1.809-0.871,2.718
			c0.853-0.245,1.764-0.609,2.73-1.096c0.163-0.081,0.285-0.121,0.377-0.121c0.185,0,0.278,0.08,0.278,0.233
			c0,0.122-0.075,0.239-0.229,0.357c-0.697,0.554-1.839,1.065-3.423,1.532l-0.171,0.603c-0.121,0.419-0.334,0.795-0.648,1.12
			c-0.313,0.325-0.671,0.584-1.073,0.777c-0.401,0.195-0.863,0.354-1.385,0.474c-0.905,0.218-1.928,0.322-3.066,0.322
			C274.17,101.661,273.18,101.257,273.18,100.447z M278.479,99.864l0.3-0.895c-1.895,0.315-2.84,0.773-2.84,1.365
			c0,0.173,0.078,0.316,0.236,0.42c0.161,0.104,0.358,0.161,0.6,0.161C277.681,100.916,278.247,100.564,278.479,99.864z
			 M279.204,96.107c0.333-0.283,0.619-0.724,0.866-1.317c0.247-0.596,0.373-1.077,0.373-1.447c0-0.366-0.06-0.618-0.177-0.761
			c-0.117-0.139-0.345-0.208-0.688-0.208c-0.342,0-0.716,0.158-1.121,0.47c-0.409,0.311-0.742,0.709-0.997,1.192
			c-0.257,0.483-0.385,0.932-0.385,1.33c0,0.407,0.084,0.696,0.252,0.876c0.166,0.185,0.351,0.274,0.557,0.274
			s0.361-0.006,0.465-0.021c0.103-0.012,0.235-0.051,0.404-0.117C278.92,96.316,279.067,96.225,279.204,96.107z"/>
	</g>
	<g>
		<g>
			
				<linearGradient id="SVGID_14_" gradientUnits="userSpaceOnUse" x1="-131.8623" y1="410.376" x2="-130.4632" y2="408.9769" gradientTransform="matrix(9.775 0 0 -7.054 1428.8319 2982.6445)">
				<stop  offset="0" style="stop-color:#FAC100"/>
				<stop  offset="0.5" style="stop-color:#FF9400"/>
				<stop  offset="1" style="stop-color:#FD2704"/>
			</linearGradient>
			<path fill="url(#SVGID_14_)" d="M148.959,91.976c0.161,0,0.241,0.13,0.241,0.396c0,0.262-0.081,0.486-0.241,0.675
				c-0.16,0.189-0.335,0.288-0.524,0.3c-0.188,0.016-0.383,0.035-0.583,0.07c-0.201,0.033-0.43,0.075-0.686,0.129
				c-0.256,0.058-0.489,0.133-0.702,0.226c-0.211,0.098-0.408,0.208-0.59,0.335c-0.398,0.268-0.596,0.636-0.596,1.102
				c0,0.311,0.074,0.581,0.219,0.811c0.146,0.229,0.337,0.412,0.575,0.535c0.457,0.242,0.963,0.361,1.517,0.361
				c0.852,0,1.939-0.191,3.264-0.577c0.076-0.024,0.142-0.033,0.197-0.033c0.161,0,0.242,0.09,0.242,0.255
				c0,0.316-0.303,0.618-0.905,0.919c-0.603,0.295-1.339,0.53-2.207,0.698s-1.688,0.257-2.46,0.257
				c-0.772,0-1.463-0.049-2.073-0.157c-0.61-0.105-1.149-0.259-1.619-0.471c-0.47-0.208-0.836-0.483-1.096-0.834
				c-0.259-0.349-0.391-0.746-0.391-1.197c0-0.455,0.127-0.865,0.385-1.223c0.256-0.361,0.594-0.664,1.013-0.895
				c0.418-0.237,0.906-0.437,1.46-0.601c1.046-0.293,2.2-0.442,3.461-0.442c-0.898-0.047-1.568-0.132-2.01-0.239
				c-0.442-0.114-0.791-0.225-1.047-0.328c-0.256-0.105-0.471-0.225-0.644-0.358c-0.398-0.304-0.597-0.684-0.597-1.141
				c0-0.462,0.162-0.882,0.485-1.271c0.325-0.389,0.753-0.705,1.286-0.952c1.105-0.512,2.388-0.768,3.848-0.768
				c1.985,0,3.349,0.234,4.09,0.707c0.16,0.103,0.241,0.257,0.241,0.455c0,0.199-0.138,0.529-0.415,0.989
				c-0.276,0.457-0.502,0.773-0.674,0.947c-0.171,0.174-0.331,0.263-0.476,0.263s-0.279-0.057-0.397-0.168
				c-0.118-0.11-0.212-0.248-0.279-0.418c-0.461-1.102-1.173-1.647-2.133-1.647c-0.56,0-1.03,0.161-1.414,0.482
				c-0.383,0.322-0.574,0.711-0.574,1.172c0,0.459,0.222,0.856,0.664,1.188c0.442,0.332,0.98,0.494,1.615,0.494L148.959,91.976z"/>
			
				<linearGradient id="SVGID_15_" gradientUnits="userSpaceOnUse" x1="-132.9048" y1="386.3057" x2="-131.5199" y2="384.9208" gradientTransform="matrix(10.675 0 0 -4.817 1569.2832 1952.5)">
				<stop  offset="0" style="stop-color:#FAC100"/>
				<stop  offset="0.5" style="stop-color:#FF9400"/>
				<stop  offset="1" style="stop-color:#FD2704"/>
			</linearGradient>
			<path fill="url(#SVGID_15_)" d="M165.011,96.242c0.158,0,0.234,0.077,0.234,0.23c0,0.155-0.077,0.292-0.232,0.409
				c-0.153,0.116-0.38,0.25-0.682,0.401c-0.301,0.152-0.675,0.316-1.121,0.492c-0.445,0.182-0.962,0.334-1.548,0.461
				c-0.587,0.129-1.15,0.193-1.681,0.193c-1.258,0-1.887-0.304-1.887-0.917c0-0.393,0.213-1.098,0.639-2.116
				c0.426-1.018,0.639-1.701,0.639-2.057c0-0.4-0.295-0.599-0.884-0.599c-0.267,0-0.569,0.033-0.908,0.105
				c-0.16,0.604-0.448,1.56-0.861,2.866c-0.413,1.304-0.646,2.054-0.698,2.232c-0.052,0.178-0.167,0.27-0.339,0.27l-3.27,0.075
				c-0.046,0-0.099-0.033-0.156-0.091c-0.057-0.062-0.085-0.137-0.085-0.219c0-0.085,0.091-0.375,0.271-0.881
				c0.179-0.503,0.378-1.049,0.596-1.63c0.218-0.582,0.417-1.223,0.597-1.917c0.18-0.698,0.27-1.277,0.27-1.734l-0.006-0.256
				c0-0.226,0.205-0.339,0.616-0.339l3.011-0.072c0.109,0,0.191,0.033,0.247,0.103c0.055,0.068,0.084,0.157,0.084,0.256
				c0,0.097-0.024,0.263-0.07,0.484c1.49-0.66,2.714-0.99,3.671-0.99c0.404,0,0.775,0.116,1.109,0.353
				c0.374,0.267,0.559,0.67,0.559,1.204c0,0.552-0.197,1.275-0.589,2.168c-0.395,0.892-0.588,1.445-0.588,1.656
				c0,0.419,0.154,0.623,0.469,0.623c0.197,0,0.535-0.081,1.018-0.237c0.481-0.16,0.838-0.29,1.067-0.392
				C164.731,96.295,164.9,96.242,165.011,96.242z"/>
			
				<linearGradient id="SVGID_16_" gradientUnits="userSpaceOnUse" x1="-128.2603" y1="422.3584" x2="-126.8652" y2="420.9633" gradientTransform="matrix(7.928 0 0 -9.224 1177.6498 3983.9849)">
				<stop  offset="0" style="stop-color:#FAC100"/>
				<stop  offset="0.5" style="stop-color:#FF9400"/>
				<stop  offset="1" style="stop-color:#FD2704"/>
			</linearGradient>
			<path fill="url(#SVGID_16_)" d="M171.469,96.242c0.191,0,0.284,0.093,0.284,0.276c0,0.253-0.537,0.566-1.612,0.94
				c-0.67,0.238-1.367,0.422-2.102,0.553c-0.097,0.375-0.229,0.833-0.393,1.365c-0.244,0.786-0.61,1.352-1.098,1.7
				c-0.485,0.348-1.151,0.518-1.998,0.518c-0.841,0-1.518-0.109-2.021-0.338c-0.328-0.146-0.486-0.315-0.486-0.521
				c0-0.204,0.109-0.306,0.33-0.306l0.435,0.032c0.321,0,0.638-0.354,0.948-1.065c0.185-0.429,0.435-1.143,0.741-2.142
				c0.609-2.014,1.096-3.899,1.458-5.668c0.024-0.136,0.067-0.228,0.124-0.288c0.059-0.056,0.177-0.084,0.354-0.084l3.087-0.075
				c0.11,0,0.199,0.03,0.271,0.087c0.069,0.057,0.104,0.136,0.104,0.232c0,0.096-0.044,0.264-0.133,0.499
				c-0.087,0.235-0.18,0.485-0.271,0.744c-0.092,0.262-0.18,0.539-0.269,0.822c-0.083,0.29-0.158,0.521-0.212,0.696
				c-0.056,0.175-0.126,0.428-0.208,0.757c-0.086,0.325-0.142,0.543-0.167,0.641c-0.025,0.101-0.083,0.342-0.178,0.714
				c-0.088,0.373-0.141,0.589-0.155,0.636c0.974-0.064,1.814-0.235,2.533-0.524C171.178,96.313,171.39,96.242,171.469,96.242z
				 M170.605,88.673c0,0.481-0.251,0.896-0.751,1.252c-0.503,0.354-1.032,0.534-1.588,0.534c-0.559,0-0.99-0.118-1.299-0.356
				c-0.31-0.239-0.465-0.535-0.465-0.878c0-0.348,0.117-0.661,0.356-0.94c0.235-0.281,0.542-0.502,0.924-0.667
				c0.379-0.16,0.79-0.241,1.233-0.241c0.445,0,0.82,0.123,1.127,0.373C170.452,87.993,170.605,88.302,170.605,88.673z"/>
			
				<linearGradient id="SVGID_17_" gradientUnits="userSpaceOnUse" x1="-132.2515" y1="386.1367" x2="-130.815" y2="384.7003" gradientTransform="matrix(10.417 0 0 -4.805 1547.0574 1946.9802)">
				<stop  offset="0" style="stop-color:#FAC100"/>
				<stop  offset="0.5" style="stop-color:#FF9400"/>
				<stop  offset="1" style="stop-color:#FD2704"/>
			</linearGradient>
			<path fill="url(#SVGID_17_)" d="M172.116,97.709c-0.795-0.505-1.193-1.276-1.193-2.307c0-0.539,0.104-1.046,0.313-1.517
				c0.211-0.476,0.495-0.881,0.864-1.229c0.366-0.347,0.791-0.642,1.278-0.888c0.975-0.496,2.089-0.744,3.345-0.744
				c2.476,0,3.805,0.831,4.007,2.487c0.297,0.102,0.601,0.156,0.916,0.156s0.581-0.027,0.791-0.072
				c0.211-0.052,0.411-0.123,0.601-0.227c0.187-0.096,0.323-0.15,0.401-0.15c0.164,0,0.241,0.084,0.241,0.251
				c0,0.164-0.128,0.339-0.377,0.518c-0.469,0.343-1.095,0.512-1.864,0.512c-0.291,0-0.532-0.017-0.711-0.046
				c-0.135,1.13-0.689,2.072-1.654,2.818c-0.461,0.358-1.027,0.642-1.698,0.85c-0.672,0.207-1.365,0.311-2.083,0.311
				c-0.717,0-1.332-0.062-1.844-0.179C172.942,98.132,172.498,97.951,172.116,97.709z M174.423,95.994
				c0,0.83,0.285,1.244,0.855,1.244c0.364,0,0.704-0.211,1.02-0.628c0.316-0.419,0.56-0.945,0.736-1.573
				c0.179-0.621,0.265-1.255,0.265-1.904c0-0.651-0.214-0.974-0.64-0.974c-0.372,0-0.733,0.183-1.083,0.557
				c-0.348,0.372-0.629,0.854-0.841,1.448C174.525,94.759,174.423,95.368,174.423,95.994z"/>
			
				<linearGradient id="SVGID_18_" gradientUnits="userSpaceOnUse" x1="-132.4292" y1="408.2979" x2="-131.0192" y2="406.8878" gradientTransform="matrix(10.737 0 0 -6.807 1602.1375 2870.9927)">
				<stop  offset="0" style="stop-color:#FAC100"/>
				<stop  offset="0.5" style="stop-color:#FF9400"/>
				<stop  offset="1" style="stop-color:#FD2704"/>
			</linearGradient>
			<path fill="url(#SVGID_18_)" d="M194.277,96.242c0.158,0,0.233,0.077,0.233,0.228c0,0.301-0.539,0.692-1.623,1.174
				c-0.678,0.297-1.423,0.543-2.236,0.727c-0.101,0.3-0.19,0.564-0.273,0.799c-0.08,0.231-0.231,0.49-0.439,0.78
				c-0.215,0.289-0.466,0.527-0.756,0.72c-0.29,0.193-0.601,0.353-0.935,0.483s-0.706,0.234-1.119,0.307
				c-0.75,0.136-1.627,0.202-2.632,0.202s-1.779-0.116-2.322-0.354c-0.54-0.235-0.813-0.582-0.813-1.03
				c0-0.258,0.104-0.493,0.317-0.708c0.213-0.21,0.487-0.385,0.829-0.533c0.34-0.143,0.775-0.274,1.305-0.389
				c0.9-0.193,2.033-0.354,3.396-0.48c0.115-0.4,0.198-0.735,0.248-1.001c-1.233,0.483-2.363,0.729-3.393,0.729
				c-1.378,0-2.067-0.482-2.067-1.446c0-0.676,0.189-1.514,0.574-2.516c0.385-0.997,0.577-1.701,0.577-2.101l-0.005-0.255
				c0-0.225,0.205-0.343,0.614-0.343l1.481,0.032l1.34-0.101c0.113,0,0.192,0.034,0.248,0.104c0.055,0.071,0.079,0.189,0.079,0.364
				c0,0.171-0.063,0.473-0.184,0.9c-0.128,0.426-0.264,0.831-0.41,1.199c-0.403,0.998-0.604,1.674-0.604,2.022
				c0,0.198,0.07,0.348,0.203,0.452c0.137,0.098,0.314,0.154,0.536,0.154c0.466,0,0.897-0.136,1.303-0.411
				c0.452-1.298,0.87-2.738,1.25-4.331c0.038-0.164,0.15-0.245,0.334-0.245c0.615,0,1.272-0.034,1.976-0.105
				c0.7-0.069,1.103-0.104,1.207-0.104c0.104,0,0.183,0.029,0.244,0.084c0.061,0.051,0.087,0.103,0.087,0.157
				c0,0.191-0.633,2.214-1.897,6.064c0.628-0.158,1.207-0.345,1.749-0.56c0.541-0.222,0.908-0.382,1.104-0.489
				C194.01,96.297,194.165,96.242,194.277,96.242z M186.667,99.864c0.122-0.329,0.229-0.639,0.315-0.933
				c-1.906,0.257-2.855,0.727-2.855,1.399c0,0.174,0.084,0.341,0.256,0.493c0.173,0.158,0.345,0.23,0.518,0.23
				c0.386,0,0.745-0.102,1.081-0.313C186.313,100.54,186.542,100.246,186.667,99.864z"/>
			
				<linearGradient id="SVGID_19_" gradientUnits="userSpaceOnUse" x1="-129.7759" y1="386.2109" x2="-128.4008" y2="384.8358" gradientTransform="matrix(9.131 0 0 -4.808 1382.0165 1948.3638)">
				<stop  offset="0" style="stop-color:#FAC100"/>
				<stop  offset="0.5" style="stop-color:#FF9400"/>
				<stop  offset="1" style="stop-color:#FD2704"/>
			</linearGradient>
			<path fill="url(#SVGID_19_)" d="M202.793,98.423c-0.105,0.003-0.264,0.007-0.469,0.007c-0.976,0-1.894-0.098-2.753-0.29
				c-0.861-0.194-1.37-0.418-1.528-0.675c-0.05-0.081-0.077-0.179-0.077-0.302c0-0.12,0.137-0.313,0.407-0.581
				c0.272-0.269,0.457-0.402,0.559-0.402c0.101,0,0.206,0.039,0.314,0.117c0.11,0.08,0.229,0.173,0.358,0.288
				c0.132,0.11,0.279,0.225,0.438,0.339c0.384,0.271,0.849,0.406,1.393,0.406c0.215,0,0.389-0.061,0.523-0.175
				c0.132-0.114,0.201-0.265,0.201-0.44c0-0.175-0.058-0.33-0.17-0.46s-0.258-0.243-0.438-0.343c-0.179-0.1-0.378-0.193-0.59-0.291
				c-0.215-0.098-0.435-0.201-0.65-0.315c-0.219-0.113-0.42-0.236-0.6-0.373c-0.402-0.3-0.603-0.674-0.603-1.121
				c0-0.448,0.128-0.834,0.384-1.163c0.256-0.328,0.581-0.591,0.969-0.789c0.388-0.196,0.832-0.36,1.32-0.497
				c0.863-0.227,1.68-0.343,2.446-0.343c0.771,0,1.485,0.039,2.148,0.123c0.662,0.084,1.116,0.205,1.368,0.364
				c0.068,0.039,0.101,0.149,0.101,0.319c0,0.171-0.058,0.419-0.173,0.74c-0.116,0.319-0.259,0.616-0.435,0.887
				c-0.175,0.272-0.332,0.408-0.477,0.408c-0.055,0-0.101-0.025-0.136-0.075c-0.402-0.512-0.79-0.903-1.173-1.182
				c-0.38-0.278-0.79-0.417-1.233-0.417c-0.339,0-0.584,0.075-0.73,0.222c-0.146,0.147-0.22,0.293-0.22,0.454
				c0,0.158,0.081,0.307,0.244,0.452c0.164,0.146,0.367,0.275,0.61,0.392c0.243,0.113,0.507,0.249,0.793,0.407
				c0.283,0.157,0.55,0.311,0.79,0.473c0.244,0.16,0.447,0.358,0.61,0.601c0.163,0.236,0.244,0.544,0.244,0.905
				s-0.128,0.72-0.378,1.063c1.05-0.226,1.87-0.503,2.465-0.827c0.101-0.062,0.188-0.092,0.262-0.092
				c0.162,0,0.238,0.088,0.238,0.257c0,0.144-0.078,0.277-0.246,0.395c-0.165,0.117-0.436,0.265-0.819,0.431
				c-0.383,0.167-0.833,0.337-1.356,0.507C205.508,98.224,204.194,98.423,202.793,98.423z"/>
			
				<linearGradient id="SVGID_20_" gradientUnits="userSpaceOnUse" x1="-132.0498" y1="407.0928" x2="-130.6597" y2="405.7026" gradientTransform="matrix(10.685 0 0 -6.653 1616.3256 2797.9841)">
				<stop  offset="0" style="stop-color:#FAC100"/>
				<stop  offset="0.5" style="stop-color:#FF9400"/>
				<stop  offset="1" style="stop-color:#FD2704"/>
			</linearGradient>
			<path fill="url(#SVGID_20_)" d="M211.241,88.192l2.905-0.021c0.099,0,0.181,0.032,0.24,0.099c0.062,0.063,0.09,0.17,0.09,0.319
				c0,0.146-0.085,0.58-0.26,1.303c-0.174,0.721-0.369,1.424-0.585,2.114c0.553-0.25,1.166-0.479,1.842-0.68
				c0.672-0.206,1.277-0.305,1.814-0.305c0.406,0,0.776,0.119,1.109,0.355c0.373,0.265,0.558,0.668,0.558,1.201
				c0,0.534-0.194,1.254-0.589,2.162c-0.391,0.905-0.588,1.483-0.588,1.736c0,0.366,0.167,0.55,0.501,0.55
				c0.66,0,1.405-0.224,2.241-0.679c0.128-0.071,0.23-0.106,0.311-0.106c0.177,0,0.261,0.082,0.261,0.245
				c0,0.164-0.096,0.31-0.285,0.438c-0.194,0.126-0.436,0.263-0.728,0.41c-0.294,0.147-0.66,0.308-1.101,0.481
				c-1.027,0.409-2.126,0.612-3.293,0.612c-1.17,0-1.754-0.305-1.754-0.917c0-0.396,0.213-1.101,0.639-2.116
				c0.423-1.018,0.638-1.702,0.638-2.057c0-0.424-0.293-0.641-0.884-0.641c-0.326,0-0.646,0.055-0.964,0.161
				c-0.698,2.174-1.199,3.877-1.506,5.108c-0.025,0.085-0.072,0.148-0.142,0.187c-0.078,0.039-0.139,0.06-0.194,0.06l-3.27,0.075
				c-0.049,0-0.101-0.033-0.156-0.093c-0.059-0.06-0.085-0.136-0.085-0.226c0-0.089,0.136-0.541,0.409-1.353
				c0.274-0.811,0.573-1.696,0.9-2.646c0.329-0.951,0.63-1.94,0.901-2.968c0.273-1.028,0.409-1.793,0.409-2.295l-0.005-0.187
				C210.624,88.305,210.83,88.192,211.241,88.192z"/>
			
				<linearGradient id="SVGID_21_" gradientUnits="userSpaceOnUse" x1="-131.3857" y1="386.1357" x2="-129.9492" y2="384.6992" gradientTransform="matrix(10.419 0 0 -4.805 1587.6295 1946.9802)">
				<stop  offset="0" style="stop-color:#FAC100"/>
				<stop  offset="0.5" style="stop-color:#FF9400"/>
				<stop  offset="1" style="stop-color:#FD2704"/>
			</linearGradient>
			<path fill="url(#SVGID_21_)" d="M221.457,97.709c-0.797-0.505-1.196-1.276-1.196-2.307c0-0.539,0.105-1.046,0.315-1.517
				c0.211-0.476,0.495-0.881,0.863-1.229c0.366-0.347,0.793-0.642,1.28-0.888c0.974-0.496,2.089-0.744,3.345-0.744
				c2.475,0,3.804,0.831,4.006,2.487c0.296,0.102,0.6,0.156,0.916,0.156c0.315,0,0.581-0.027,0.792-0.072
				c0.21-0.052,0.411-0.123,0.601-0.227c0.185-0.096,0.322-0.15,0.399-0.15c0.164,0,0.241,0.084,0.241,0.251
				c0,0.164-0.127,0.339-0.376,0.518c-0.472,0.343-1.096,0.512-1.865,0.512c-0.291,0-0.531-0.017-0.709-0.046
				c-0.136,1.13-0.69,2.072-1.654,2.818c-0.462,0.358-1.028,0.642-1.698,0.85c-0.675,0.207-1.365,0.311-2.084,0.311
				c-0.718,0-1.332-0.062-1.844-0.179C222.282,98.132,221.837,97.951,221.457,97.709z M223.763,95.994
				c0,0.83,0.284,1.244,0.856,1.244c0.363,0,0.703-0.211,1.019-0.628c0.315-0.419,0.56-0.945,0.737-1.573
				c0.178-0.621,0.264-1.255,0.264-1.904c0-0.651-0.214-0.974-0.64-0.974c-0.372,0-0.733,0.183-1.082,0.557
				c-0.35,0.372-0.631,0.854-0.841,1.448C223.868,94.759,223.763,95.368,223.763,95.994z"/>
			
				<linearGradient id="SVGID_22_" gradientUnits="userSpaceOnUse" x1="-132.3389" y1="408.1768" x2="-130.9853" y2="406.8232" gradientTransform="matrix(11.286 0 0 -6.799 1721.7551 2867.2163)">
				<stop  offset="0" style="stop-color:#FAC100"/>
				<stop  offset="0.5" style="stop-color:#FF9400"/>
				<stop  offset="1" style="stop-color:#FD2704"/>
			</linearGradient>
			<path fill="url(#SVGID_22_)" d="M233,91.232l2.884-0.072c0.109,0,0.189,0.033,0.245,0.103c0.057,0.071,0.081,0.151,0.081,0.235
				c0,0.087-0.017,0.235-0.043,0.451c-0.028,0.215-0.046,0.367-0.046,0.467c0.781-0.93,1.817-1.396,3.118-1.396
				c0.791,0,1.414,0.213,1.869,0.641c0.457,0.428,0.685,1.036,0.685,1.822c0,1.525-0.567,2.774-1.696,3.743
				c1.312-0.098,2.321-0.354,3.023-0.773c0.232-0.14,0.404-0.21,0.516-0.21c0.142,0,0.216,0.084,0.216,0.248
				c0,0.117-0.079,0.236-0.233,0.355c-0.721,0.535-1.646,0.93-2.778,1.187c-1.135,0.255-2.352,0.385-3.654,0.385
				c-0.16,0.009-0.28,0.013-0.363,0.013c-0.447,0-0.896-0.072-1.346-0.215c-0.449-0.147-0.822-0.35-1.119-0.607
				c-0.291,0.942-0.437,2.035-0.437,3.278l0.007,0.192c0,0.227-0.205,0.339-0.617,0.339l-2.951,0.083
				c-0.102,0-0.182-0.033-0.239-0.099c-0.06-0.063-0.091-0.138-0.091-0.218c0-0.768,0.396-2.258,1.19-4.467
				c0.791-2.208,1.191-3.689,1.191-4.438l-0.025-0.557c0-0.165,0.037-0.29,0.116-0.366C232.574,91.273,232.744,91.232,233,91.232z
				 M237.37,92.73c-0.795,0-1.459,0.645-1.995,1.937c-0.243,0.595-0.369,1.075-0.369,1.443c0,0.367,0.061,0.621,0.176,0.762
				c0.117,0.139,0.344,0.208,0.686,0.208c0.346,0,0.711-0.166,1.105-0.5c0.396-0.338,0.716-0.756,0.955-1.26
				c0.24-0.508,0.363-0.964,0.363-1.371c0-0.41-0.084-0.711-0.254-0.915C237.867,92.828,237.646,92.73,237.37,92.73z"/>
			
				<linearGradient id="SVGID_23_" gradientUnits="userSpaceOnUse" x1="-132.1421" y1="408.1758" x2="-130.7883" y2="406.822" gradientTransform="matrix(11.283 0 0 -6.799 1731.0601 2867.2163)">
				<stop  offset="0" style="stop-color:#FAC100"/>
				<stop  offset="0.5" style="stop-color:#FF9400"/>
				<stop  offset="1" style="stop-color:#FD2704"/>
			</linearGradient>
			<path fill="url(#SVGID_23_)" d="M244.921,91.232l2.883-0.072c0.11,0,0.193,0.033,0.248,0.103
				c0.056,0.071,0.082,0.151,0.082,0.235c0,0.087-0.02,0.235-0.046,0.451c-0.029,0.215-0.045,0.367-0.045,0.467
				c0.781-0.93,1.82-1.396,3.119-1.396c0.791,0,1.416,0.213,1.87,0.641s0.684,1.036,0.684,1.822c0,1.525-0.567,2.774-1.698,3.743
				c1.313-0.098,2.323-0.354,3.025-0.773c0.23-0.14,0.404-0.21,0.515-0.21c0.142,0,0.216,0.084,0.216,0.248
				c0,0.117-0.078,0.236-0.233,0.355c-0.72,0.535-1.646,0.93-2.78,1.187c-1.132,0.255-2.352,0.385-3.654,0.385
				c-0.159,0.009-0.281,0.013-0.36,0.013c-0.45,0-0.896-0.072-1.349-0.215c-0.447-0.147-0.82-0.35-1.117-0.607
				c-0.29,0.942-0.437,2.035-0.437,3.278l0.005,0.192c0,0.227-0.202,0.339-0.614,0.339l-2.951,0.083
				c-0.103,0-0.181-0.033-0.241-0.099c-0.06-0.063-0.086-0.138-0.086-0.218c0-0.768,0.393-2.258,1.187-4.467
				c0.792-2.208,1.189-3.689,1.189-4.438l-0.025-0.557c0-0.165,0.038-0.29,0.117-0.366
				C244.492,91.273,244.662,91.232,244.921,91.232z M249.289,92.73c-0.795,0-1.459,0.645-1.995,1.937
				c-0.244,0.595-0.368,1.075-0.368,1.443c0,0.367,0.06,0.621,0.176,0.762c0.116,0.139,0.343,0.208,0.686,0.208
				c0.342,0,0.71-0.166,1.104-0.5c0.396-0.338,0.715-0.756,0.954-1.26c0.241-0.508,0.364-0.964,0.364-1.371
				c0-0.41-0.084-0.711-0.254-0.915C249.786,92.831,249.564,92.73,249.289,92.73z"/>
			
				<linearGradient id="SVGID_24_" gradientUnits="userSpaceOnUse" x1="-120.1865" y1="411.1416" x2="-118.7935" y2="409.7485" gradientTransform="matrix(6.084 0 0 -7.17 985.126 3036.0632)">
				<stop  offset="0" style="stop-color:#FAC100"/>
				<stop  offset="0.5" style="stop-color:#FF9400"/>
				<stop  offset="1" style="stop-color:#FD2704"/>
			</linearGradient>
			<path fill="url(#SVGID_24_)" d="M259.311,97.024c0.284,0,0.68-0.074,1.169-0.221c0.491-0.148,0.85-0.277,1.077-0.389
				c0.228-0.114,0.383-0.173,0.472-0.173c0.179,0,0.268,0.096,0.268,0.286c0,0.085-0.067,0.18-0.198,0.29
				c-0.434,0.342-1.207,0.694-2.329,1.06c-1.122,0.367-2.12,0.552-3.004,0.552c-0.542,0-1.002-0.095-1.369-0.277
				c-0.369-0.184-0.551-0.466-0.551-0.843c0-0.227,0.182-0.791,0.551-1.683c0.692-1.693,1.042-2.966,1.042-3.821l-0.007-0.257
				c0-0.227,0.206-0.337,0.617-0.337l3.139-0.073c0.112,0,0.194,0.031,0.248,0.102c0.056,0.069,0.079,0.147,0.079,0.23
				c0,0.309-0.129,0.819-0.397,1.53c-0.268,0.712-0.535,1.409-0.799,2.096c-0.266,0.683-0.401,1.179-0.401,1.472
				C258.909,96.875,259.043,97.024,259.311,97.024z M261.096,88.673c0,0.481-0.252,0.896-0.754,1.252
				c-0.5,0.354-1.031,0.534-1.588,0.534c-0.558,0-0.991-0.118-1.3-0.356c-0.309-0.239-0.463-0.535-0.463-0.878
				c0-0.348,0.119-0.661,0.355-0.94c0.236-0.281,0.546-0.502,0.923-0.667c0.382-0.16,0.792-0.241,1.237-0.241
				c0.442,0,0.82,0.123,1.127,0.373C260.939,87.993,261.096,88.302,261.096,88.673z"/>
			
				<linearGradient id="SVGID_25_" gradientUnits="userSpaceOnUse" x1="-131.0322" y1="386.3057" x2="-129.6472" y2="384.9206" gradientTransform="matrix(10.675 0 0 -4.817 1658.2799 1952.5)">
				<stop  offset="0" style="stop-color:#FAC100"/>
				<stop  offset="0.5" style="stop-color:#FF9400"/>
				<stop  offset="1" style="stop-color:#FD2704"/>
			</linearGradient>
			<path fill="url(#SVGID_25_)" d="M273.997,96.242c0.157,0,0.234,0.077,0.234,0.23c0,0.155-0.078,0.292-0.231,0.409
				c-0.154,0.116-0.384,0.25-0.682,0.401c-0.302,0.152-0.675,0.316-1.122,0.492c-0.445,0.182-0.963,0.334-1.552,0.461
				c-0.587,0.129-1.146,0.193-1.678,0.193c-1.259,0-1.885-0.304-1.885-0.917c0-0.393,0.21-1.098,0.638-2.116
				c0.425-1.018,0.637-1.701,0.637-2.057c0-0.4-0.294-0.599-0.884-0.599c-0.265,0-0.568,0.033-0.908,0.105
				c-0.16,0.604-0.447,1.56-0.858,2.866c-0.413,1.307-0.646,2.054-0.697,2.232c-0.054,0.178-0.168,0.27-0.34,0.27l-3.271,0.075
				c-0.048,0-0.098-0.033-0.155-0.091c-0.058-0.062-0.086-0.137-0.086-0.219c0-0.085,0.091-0.375,0.272-0.881
				c0.179-0.503,0.382-1.049,0.594-1.63c0.222-0.582,0.421-1.223,0.599-1.917c0.179-0.698,0.269-1.277,0.269-1.734l-0.007-0.256
				c0-0.226,0.206-0.339,0.617-0.339l3.01-0.072c0.111,0,0.193,0.033,0.248,0.103c0.056,0.068,0.082,0.157,0.082,0.256
				c0,0.097-0.025,0.263-0.073,0.484c1.491-0.66,2.716-0.99,3.672-0.99c0.406,0,0.778,0.116,1.112,0.353
				c0.37,0.267,0.557,0.67,0.557,1.204c0,0.552-0.196,1.275-0.589,2.168c-0.393,0.892-0.591,1.445-0.591,1.656
				c0,0.419,0.157,0.623,0.471,0.623c0.198,0,0.538-0.081,1.019-0.237c0.483-0.16,0.84-0.29,1.067-0.392
				C273.717,96.295,273.887,96.242,273.997,96.242z"/>
			
				<linearGradient id="SVGID_26_" gradientUnits="userSpaceOnUse" x1="-130.6919" y1="409.042" x2="-129.2847" y2="407.6348" gradientTransform="matrix(10.602 0 0 -6.906 1657.4712 2916.5864)">
				<stop  offset="0" style="stop-color:#FAC100"/>
				<stop  offset="0.5" style="stop-color:#FF9400"/>
				<stop  offset="1" style="stop-color:#FD2704"/>
			</linearGradient>
			<path fill="url(#SVGID_26_)" d="M273.18,100.447c0-0.273,0.201-0.537,0.612-0.792c0.408-0.255,0.935-0.483,1.582-0.669
				c1.173-0.347,2.396-0.608,3.662-0.792c0.148-0.437,0.288-0.861,0.415-1.256c-0.453,0.354-0.96,0.633-1.524,0.834
				c-0.562,0.202-1.071,0.303-1.528,0.303c-0.459,0-0.842-0.04-1.155-0.124c-0.315-0.086-0.603-0.218-0.87-0.395
				c-0.572-0.386-0.857-1.021-0.857-1.906c0-0.886,0.229-1.686,0.675-2.395c0.448-0.711,1.057-1.259,1.825-1.652
				c0.769-0.392,1.638-0.589,2.612-0.589s1.729,0.226,2.264,0.676c0.384-0.126,0.833-0.237,1.345-0.337
				c0.51-0.097,0.908-0.145,1.199-0.145c0.289,0,0.535,0.074,0.736,0.226c0.201,0.147,0.302,0.313,0.302,0.506
				c0,0.189-0.063,0.481-0.185,0.867c-0.127,0.388-0.338,1.031-0.642,1.934s-0.595,1.809-0.871,2.718
				c0.853-0.245,1.764-0.609,2.73-1.096c0.163-0.081,0.285-0.121,0.377-0.121c0.185,0,0.278,0.08,0.278,0.233
				c0,0.122-0.075,0.239-0.229,0.357c-0.697,0.554-1.839,1.065-3.423,1.532l-0.171,0.603c-0.121,0.419-0.334,0.795-0.648,1.12
				c-0.313,0.325-0.671,0.584-1.073,0.777c-0.401,0.195-0.863,0.354-1.385,0.474c-0.905,0.218-1.928,0.322-3.066,0.322
				C274.17,101.661,273.18,101.257,273.18,100.447z M278.479,99.864l0.3-0.895c-1.895,0.315-2.84,0.773-2.84,1.365
				c0,0.173,0.078,0.316,0.236,0.42c0.161,0.104,0.358,0.161,0.6,0.161C277.681,100.916,278.247,100.564,278.479,99.864z
				 M279.204,96.107c0.333-0.283,0.619-0.724,0.866-1.317c0.247-0.596,0.373-1.077,0.373-1.447c0-0.366-0.06-0.618-0.177-0.761
				c-0.117-0.139-0.345-0.208-0.688-0.208c-0.342,0-0.716,0.158-1.121,0.47c-0.409,0.311-0.742,0.709-0.997,1.192
				c-0.257,0.483-0.385,0.932-0.385,1.33c0,0.407,0.084,0.696,0.252,0.876c0.166,0.185,0.351,0.274,0.557,0.274
				s0.361-0.006,0.465-0.021c0.103-0.012,0.235-0.051,0.404-0.117C278.92,96.316,279.067,96.225,279.204,96.107z"/>
		</g>
	</g>
</g>
<g>
	<g opacity="0.75">
		
			<linearGradient id="SVGID_27_" gradientUnits="userSpaceOnUse" x1="-142.6924" y1="429.2549" x2="-141.6924" y2="428.2549" gradientTransform="matrix(50.109 0 0 -11 7169.9224 4823.8906)">
			<stop  offset="0" style="stop-color:#FAC100"/>
			<stop  offset="0.5" style="stop-color:#FF9400"/>
			<stop  offset="1" style="stop-color:#FD2704"/>
		</linearGradient>
		<path fill="url(#SVGID_27_)" d="M16.236,102.852c0,0,5.436,11,15.705,11h30.177c0-4.23,1.607-8.078,4.227-11H16.236z"/>
	</g>
	<g>
		
			<linearGradient id="SVGID_28_" gradientUnits="userSpaceOnUse" x1="-142.6924" y1="429.2549" x2="-141.6924" y2="428.2549" gradientTransform="matrix(50.109 0 0 -11 7169.9224 4823.8906)">
			<stop  offset="0" style="stop-color:#FAC100"/>
			<stop  offset="0.5" style="stop-color:#FF9400"/>
			<stop  offset="1" style="stop-color:#FD2704"/>
		</linearGradient>
		<path fill="url(#SVGID_28_)" d="M16.236,102.852c0,0,5.436,11,15.705,11h30.177c0-4.23,1.607-8.078,4.227-11H16.236z"/>
	</g>
</g>
<g>
	<g opacity="0.75">
		
			<linearGradient id="SVGID_29_" gradientUnits="userSpaceOnUse" x1="-144.5864" y1="429.1914" x2="-143.5864" y2="428.1914" gradientTransform="matrix(151.235 0 0 -11 21958.4434 4823.8906)">
			<stop  offset="0" style="stop-color:#FAC100"/>
			<stop  offset="0.5" style="stop-color:#FF9400"/>
			<stop  offset="1" style="stop-color:#FD2704"/>
		</linearGradient>
		<path fill="url(#SVGID_29_)" d="M90.892,102.852c2.619,2.922,4.226,6.77,4.226,11H237.9c0-4.23,1.604-8.078,4.227-11H90.892z"/>
		
			<linearGradient id="SVGID_30_" gradientUnits="userSpaceOnUse" x1="-142.4229" y1="429.21" x2="-141.4229" y2="428.21" gradientTransform="matrix(44.928 0 0 -11 6666.521 4823.8906)">
			<stop  offset="0" style="stop-color:#FAC100"/>
			<stop  offset="0.5" style="stop-color:#FF9400"/>
			<stop  offset="1" style="stop-color:#FD2704"/>
		</linearGradient>
		<path fill="url(#SVGID_30_)" d="M266.672,102.852c2.621,2.922,4.229,6.77,4.229,11h27.412c9.664-2.5,13.287-11,13.287-11H266.672z
			"/>
	</g>
	<g>
		<g>
			
				<linearGradient id="SVGID_31_" gradientUnits="userSpaceOnUse" x1="-144.5864" y1="429.1914" x2="-143.5864" y2="428.1914" gradientTransform="matrix(151.235 0 0 -11 21958.4434 4823.8906)">
				<stop  offset="0" style="stop-color:#FAC100"/>
				<stop  offset="0.5" style="stop-color:#FF9400"/>
				<stop  offset="1" style="stop-color:#FD2704"/>
			</linearGradient>
			<path fill="url(#SVGID_31_)" d="M90.892,102.852c2.619,2.922,4.226,6.77,4.226,11H237.9c0-4.23,1.604-8.078,4.227-11H90.892z"/>
			
				<linearGradient id="SVGID_32_" gradientUnits="userSpaceOnUse" x1="-142.4229" y1="429.21" x2="-141.4229" y2="428.21" gradientTransform="matrix(44.928 0 0 -11 6666.521 4823.8906)">
				<stop  offset="0" style="stop-color:#FAC100"/>
				<stop  offset="0.5" style="stop-color:#FF9400"/>
				<stop  offset="1" style="stop-color:#FD2704"/>
			</linearGradient>
			<path fill="url(#SVGID_32_)" d="M266.672,102.852c2.621,2.922,4.229,6.77,4.229,11h27.412c9.664-2.5,13.287-11,13.287-11H266.672
				z"/>
		</g>
	</g>
</g>
<g>
	<g opacity="0.75">
		
			<linearGradient id="SVGID_33_" gradientUnits="userSpaceOnUse" x1="-140.2246" y1="447.8281" x2="-139.2245" y2="446.8281" gradientTransform="matrix(26 0 0 -26 3711.4531 11744.3906)">
			<stop  offset="0" style="stop-color:#FAC100"/>
			<stop  offset="0.5" style="stop-color:#FF9400"/>
			<stop  offset="1" style="stop-color:#FD2704"/>
		</linearGradient>
		<circle fill="url(#SVGID_33_)" cx="78.617" cy="113.852" r="13"/>
	</g>
	<g>
		
			<linearGradient id="SVGID_34_" gradientUnits="userSpaceOnUse" x1="-140.2246" y1="447.8281" x2="-139.2245" y2="446.8281" gradientTransform="matrix(26 0 0 -26 3711.4531 11744.3906)">
			<stop  offset="0" style="stop-color:#FAC100"/>
			<stop  offset="0.5" style="stop-color:#FF9400"/>
			<stop  offset="1" style="stop-color:#FD2704"/>
		</linearGradient>
		<circle fill="url(#SVGID_34_)" cx="78.617" cy="113.852" r="13"/>
	</g>
</g>
<g>
	<g opacity="0.75">
		
			<linearGradient id="SVGID_35_" gradientUnits="userSpaceOnUse" x1="-140.2246" y1="447.8281" x2="-139.2246" y2="446.8281" gradientTransform="matrix(26 0 0 -26 3887.2969 11744.3906)">
			<stop  offset="0" style="stop-color:#FAC100"/>
			<stop  offset="0.5" style="stop-color:#FF9400"/>
			<stop  offset="1" style="stop-color:#FD2704"/>
		</linearGradient>
		<circle fill="url(#SVGID_35_)" cx="254.451" cy="113.852" r="13"/>
	</g>
	<g>
		
			<linearGradient id="SVGID_36_" gradientUnits="userSpaceOnUse" x1="-140.2246" y1="447.8281" x2="-139.2246" y2="446.8281" gradientTransform="matrix(26 0 0 -26 3887.2969 11744.3906)">
			<stop  offset="0" style="stop-color:#FAC100"/>
			<stop  offset="0.5" style="stop-color:#FF9400"/>
			<stop  offset="1" style="stop-color:#FD2704"/>
		</linearGradient>
		<circle fill="url(#SVGID_36_)" cx="254.451" cy="113.852" r="13"/>
	</g>
</g>
<g>
	<g opacity="0.75">
		
			<linearGradient id="SVGID_37_" gradientUnits="userSpaceOnUse" x1="-141.6475" y1="452.9424" x2="-140.6474" y2="451.9423" gradientTransform="matrix(36.081 0 0 -41.292 5218.7544 18742.1914)">
			<stop  offset="0" style="stop-color:#FAC100"/>
			<stop  offset="0.5" style="stop-color:#FF9400"/>
			<stop  offset="1" style="stop-color:#FD2704"/>
		</linearGradient>
		<path fill="url(#SVGID_37_)" d="M133.208,45.907c0-0.961-1.073-1.44-3.218-1.44c-0.914,0-1.939,0.337-3.075,1.009
			c-1.136,0.673-2.193,1.607-3.17,2.807c-0.978,1.196-1.854,2.549-2.627,4.057c-1.688,3.253-2.532,6.59-2.532,10.012
			c0,3.423,0.587,6.087,1.761,7.994c1.174,1.906,2.954,2.859,5.341,2.859c0.203,0,0.355-0.006,0.457-0.021
			c0.508-1.508,0.968-3.074,1.38-4.699c0.412-1.627,0.619-2.62,0.619-2.981c0-0.361-0.178-0.662-0.533-0.897
			s-0.749-0.397-1.181-0.485c-1.142-0.236-1.713-0.675-1.713-1.311c0-0.828,0.914-1.464,2.742-1.907
			c1.828-0.442,4.008-0.665,6.54-0.665c2.532,0,4.205,0.137,5.017,0.41c0.812,0.271,1.219,0.723,1.219,1.342
			c0,0.43-0.222,1.153-0.667,2.174c-0.445,1.021-1.174,3.488-2.189,7.404c-1.016,3.918-1.752,6.283-2.209,7.098
			c-0.749,1.346-1.888,2.354-3.417,3.025c-1.53,0.673-3.322,1.01-5.379,1.01c-3.77,0-5.655-0.467-5.655-1.396
			c0-0.621,0.476-1.25,1.428-1.887c1.091-0.736,1.91-1.561,2.456-2.461c0.229-0.396,0.45-0.855,0.667-1.375
			c-1.739,0.52-3.757,0.775-6.055,0.775c-2.298,0-4.307-0.291-6.026-0.877c-1.72-0.582-3.087-1.422-4.103-2.517
			c-1.968-2.112-2.951-4.981-2.951-8.604c0-2.128,0.362-4.213,1.085-6.253c0.723-2.04,1.701-3.888,2.932-5.543
			c1.231-1.654,2.666-3.186,4.303-4.59c1.638-1.404,3.364-2.587,5.179-3.548c3.846-2.011,7.647-3.017,11.405-3.017
			c3.757,0,6.559,0.658,8.406,1.975c1.847,1.313,2.771,3.156,2.771,5.521c0,1.375-0.527,2.661-1.58,3.858
			c-1.193,1.359-3.065,2.04-5.617,2.04c-0.863,0-1.599-0.142-2.208-0.421c-1.155-0.532-1.732-1.295-1.732-2.284
			c0-0.222,0.355-1.175,1.066-2.86C132.855,47.551,133.208,46.439,133.208,45.907z"/>
		
			<linearGradient id="SVGID_38_" gradientUnits="userSpaceOnUse" x1="-141.9463" y1="446.9131" x2="-140.9463" y2="445.9131" gradientTransform="matrix(38.272 0 0 -24.419 5575.1392 10966.7295)">
			<stop  offset="0" style="stop-color:#FAC100"/>
			<stop  offset="0.5" style="stop-color:#FF9400"/>
			<stop  offset="1" style="stop-color:#FD2704"/>
		</linearGradient>
		<path fill="url(#SVGID_38_)" d="M147.296,74.866c-2.386-1.671-3.579-4.205-3.579-7.604c0-1.774,0.314-3.438,0.942-5
			c0.628-1.561,1.491-2.908,2.589-4.047c1.098-1.139,2.376-2.114,3.836-2.928c2.919-1.642,6.264-2.461,10.034-2.461
			c7.413,0,11.417,2.734,12.015,8.203c0.891,0.342,1.807,0.512,2.75,0.512c0.945,0,1.736-0.08,2.371-0.244
			c0.637-0.161,1.234-0.405,1.799-0.73c0.565-0.324,0.971-0.488,1.209-0.488c0.482,0,0.728,0.273,0.728,0.82
			s-0.375,1.116-1.123,1.708c-1.408,1.123-3.273,1.685-5.599,1.685c-0.877,0-1.59-0.051-2.135-0.153
			c-0.404,3.726-2.057,6.821-4.949,9.291c-1.385,1.184-3.08,2.112-5.094,2.795c-2.014,0.68-4.093,1.021-6.246,1.021
			c-2.152,0-3.996-0.195-5.531-0.588C149.778,76.26,148.439,75.665,147.296,74.866z M154.208,69.212c0,2.733,0.857,4.103,2.57,4.103
			c1.092,0,2.11-0.693,3.056-2.084c0.945-1.39,1.684-3.111,2.209-5.166c0.525-2.056,0.791-4.15,0.791-6.287
			c0-2.137-0.645-3.204-1.926-3.204c-1.117,0-2.199,0.613-3.246,1.84c-1.047,1.229-1.885,2.82-2.513,4.778
			C154.522,65.15,154.208,67.157,154.208,69.212z"/>
		
			<linearGradient id="SVGID_39_" gradientUnits="userSpaceOnUse" x1="-141.7368" y1="451.5762" x2="-140.7368" y2="450.5761" gradientTransform="matrix(36.4343 0 0 -35.826 5340.8149 16219.6309)">
			<stop  offset="0" style="stop-color:#FAC100"/>
			<stop  offset="0.5" style="stop-color:#FF9400"/>
			<stop  offset="1" style="stop-color:#FD2704"/>
		</linearGradient>
		<path fill="url(#SVGID_39_)" d="M177.268,74.622c-0.317-0.177-0.479-0.547-0.479-1.106c0-0.559,0.389-1.765,1.161-3.604
			c0.772-1.842,1.384-2.762,1.827-2.762c0.254,0,0.646,0.203,1.182,0.609c0.533,0.405,1.15,0.897,1.855,1.475
			c0.703,0.576,1.469,1.146,2.293,1.707c2.006,1.391,3.955,2.084,5.848,2.084c0.938,0,1.609-0.221,2.02-0.664
			c0.406-0.443,0.607-0.892,0.607-1.342c0-0.451-0.217-0.961-0.646-1.529c-0.432-0.568-0.992-1.156-1.686-1.764
			c-0.691-0.605-1.455-1.244-2.293-1.918c-0.84-0.673-1.678-1.388-2.516-2.142s-1.603-1.508-2.285-2.263
			c-1.563-1.714-2.342-3.385-2.342-5.011c0-1.152,0.266-2.195,0.789-3.127c0.526-0.932,1.198-1.686,2.021-2.262
			c0.816-0.576,1.748-1.058,2.789-1.44c1.863-0.71,3.787-1.063,5.77-1.063c0.547,0,0.951,0.096,1.219,0.287
			c0.269,0.192,0.398,0.414,0.398,0.666s-0.094,0.631-0.283,1.142c-0.19,0.511-0.287,0.965-0.287,1.364
			c0,0.397,0.23,0.908,0.695,1.528c0.463,0.621,1.063,1.257,1.799,1.907s1.549,1.346,2.438,2.085
			c0.889,0.739,1.776,1.522,2.666,2.351c0.889,0.829,1.7,1.67,2.438,2.527c1.66,1.938,2.492,3.813,2.492,5.621
			c0,1.809-0.402,3.322-1.209,4.535s-1.926,2.148-3.359,2.814c-1.436,0.664-3.008,1.148-4.723,1.451s-3.803,0.453-6.266,0.453
			s-5.176-0.299-8.141-0.896C180.1,75.741,178.168,75.169,177.268,74.622z M208.795,52.915c-1.662-2.307-3.722-4.024-6.178-5.155
			c-2.455-1.132-5.018-1.696-7.684-1.696c-4.888,0-9.597,1.072-14.127,3.215c-0.609,0.281-1.041,0.422-1.295,0.422
			c-0.509,0-0.763-0.281-0.763-0.843c0-0.458,0.34-1.005,1.019-1.641c0.681-0.636,1.657-1.29,2.934-1.964
			c1.275-0.672,2.721-1.297,4.331-1.873c3.683-1.314,7.63-1.973,11.845-1.973c6.23,0,10.936,1.02,14.107,3.06
			c0.178,0.118,0.257,0.47,0.236,1.054c-0.02,0.584-0.25,1.48-0.693,2.693s-0.98,2.336-1.609,3.371
			c-0.627,1.035-1.164,1.552-1.605,1.552C209.195,52.988,209.023,52.915,208.795,52.915z"/>
		
			<linearGradient id="SVGID_40_" gradientUnits="userSpaceOnUse" x1="-142.127" y1="450.8594" x2="-141.127" y2="449.8594" gradientTransform="matrix(39.245 0 0 -33.796 5783.9907 15284.8525)">
			<stop  offset="0" style="stop-color:#FAC100"/>
			<stop  offset="0.5" style="stop-color:#FF9400"/>
			<stop  offset="1" style="stop-color:#FD2704"/>
		</linearGradient>
		<path fill="url(#SVGID_40_)" d="M220.695,43.513l8.721-0.066c0.293,0,0.529,0.107,0.715,0.321
			c0.186,0.215,0.275,0.565,0.275,1.053c0,0.488-0.262,1.919-0.781,4.291c-0.521,2.373-1.104,4.697-1.75,6.974
			c1.662-0.826,3.502-1.577,5.521-2.25c2.02-0.672,3.832-1.01,5.442-1.01c1.222,0,2.33,0.394,3.332,1.176
			c1.117,0.873,1.677,2.195,1.677,3.97c0,1.76-0.591,4.132-1.771,7.118c-1.182,2.986-1.771,4.893-1.771,5.721
			c0,1.213,0.502,1.818,1.506,1.818c1.979,0,4.221-0.748,6.722-2.24c0.381-0.236,0.69-0.354,0.934-0.354
			c0.521,0,0.779,0.27,0.779,0.81s-0.287,1.021-0.865,1.44c-0.578,0.422-1.305,0.873-2.181,1.354
			c-0.877,0.481-1.975,1.01-3.295,1.586c-3.084,1.346-6.377,2.019-9.881,2.019s-5.256-1.007-5.256-3.017
			c0-1.301,0.639-3.625,1.912-6.975c1.277-3.35,1.914-5.605,1.914-6.773c0-1.404-0.883-2.105-2.646-2.105
			c-0.979,0-1.94,0.177-2.896,0.531c-2.094,7.153-3.598,12.766-4.512,16.829c-0.063,0.281-0.207,0.488-0.429,0.621
			c-0.225,0.133-0.416,0.199-0.582,0.199l-9.805,0.242c-0.141,0-0.297-0.102-0.467-0.299c-0.172-0.199-0.258-0.446-0.258-0.742
			c0-0.295,0.41-1.781,1.229-4.457c0.819-2.676,1.721-5.58,2.705-8.715c0.982-3.133,1.885-6.395,2.701-9.777
			c0.818-3.387,1.229-5.906,1.229-7.563l-0.021-0.621C218.85,43.882,219.463,43.513,220.695,43.513z"/>
		
			<linearGradient id="SVGID_41_" gradientUnits="userSpaceOnUse" x1="-141.9463" y1="446.9131" x2="-140.9463" y2="445.9131" gradientTransform="matrix(38.272 0 0 -24.419 5679.1768 10966.7295)">
			<stop  offset="0" style="stop-color:#FAC100"/>
			<stop  offset="0.5" style="stop-color:#FF9400"/>
			<stop  offset="1" style="stop-color:#FD2704"/>
		</linearGradient>
		<path fill="url(#SVGID_41_)" d="M251.332,74.866c-2.389-1.671-3.58-4.205-3.58-7.604c0-1.774,0.313-3.438,0.941-5
			c0.629-1.561,1.492-2.908,2.59-4.047c1.098-1.139,2.377-2.114,3.838-2.928c2.918-1.642,6.264-2.461,10.031-2.461
			c7.414,0,11.418,2.734,12.016,8.203c0.891,0.342,1.809,0.512,2.752,0.512c0.944,0,1.734-0.08,2.371-0.244
			c0.633-0.161,1.232-0.405,1.799-0.73c0.563-0.324,0.969-0.488,1.209-0.488c0.481,0,0.725,0.273,0.725,0.82
			s-0.375,1.116-1.123,1.708c-1.407,1.123-3.272,1.685-5.6,1.685c-0.875,0-1.586-0.051-2.133-0.153
			c-0.404,3.726-2.057,6.821-4.947,9.291c-1.387,1.184-3.082,2.112-5.096,2.795c-2.013,0.68-4.095,1.021-6.246,1.021
			c-2.148,0-3.992-0.195-5.527-0.588C253.813,76.26,252.475,75.665,251.332,74.866z M258.242,69.212c0,2.733,0.855,4.103,2.57,4.103
			c1.092,0,2.108-0.693,3.056-2.084c0.944-1.39,1.683-3.111,2.21-5.166c0.525-2.056,0.789-4.15,0.789-6.287
			c0-2.137-0.641-3.204-1.924-3.204c-1.115,0-2.197,0.613-3.245,1.84c-1.048,1.229-1.886,2.82-2.515,4.778
			C258.557,65.15,258.242,67.157,258.242,69.212z"/>
		
			<linearGradient id="SVGID_42_" gradientUnits="userSpaceOnUse" x1="-142.252" y1="451.1426" x2="-141.2519" y2="450.1425" gradientTransform="matrix(41.453 0 0 -34.525 6171.2871 15630.6602)">
			<stop  offset="0" style="stop-color:#FAC100"/>
			<stop  offset="0.5" style="stop-color:#FF9400"/>
			<stop  offset="1" style="stop-color:#FD2704"/>
		</linearGradient>
		<path fill="url(#SVGID_42_)" d="M285.945,53.536l8.645-0.244c0.33,0,0.578,0.115,0.742,0.344c0.166,0.229,0.248,0.488,0.248,0.775
			c0,0.289-0.045,0.783-0.135,1.485c-0.088,0.702-0.133,1.216-0.133,1.541c2.336-3.074,5.451-4.612,9.349-4.612
			c2.374,0,4.243,0.707,5.606,2.118c1.364,1.411,2.048,3.411,2.048,5.998c0,5.025-1.694,9.136-5.085,12.329
			c3.936-0.326,6.956-1.176,9.063-2.551c0.697-0.458,1.214-0.688,1.542-0.688c0.434,0,0.647,0.271,0.647,0.818
			c0,0.385-0.235,0.774-0.704,1.176c-2.158,1.76-4.937,3.061-8.33,3.901c-3.396,0.843-7.049,1.265-10.958,1.265
			c-0.481,0.028-0.845,0.043-1.085,0.043c-1.346,0-2.691-0.234-4.035-0.709c-1.348-0.473-2.465-1.139-3.354-1.994
			c-0.875,3.117-1.313,6.719-1.313,10.801l0.021,0.643c0,0.738-0.615,1.109-1.85,1.109l-8.854,0.266
			c-0.306,0-0.547-0.106-0.726-0.322c-0.179-0.215-0.269-0.454-0.269-0.721c0-2.526,1.188-7.432,3.563-14.712
			c2.373-7.28,3.562-12.155,3.562-14.624l-0.076-1.84c0-0.547,0.117-0.95,0.354-1.209C284.666,53.665,285.17,53.536,285.945,53.536z
			 M299.045,58.458c-2.387,0-4.379,2.127-5.979,6.386c-0.736,1.95-1.104,3.532-1.104,4.745c0,1.212,0.175,2.048,0.521,2.506
			c0.348,0.458,1.035,0.688,2.06,0.688c1.021,0,2.125-0.551,3.313-1.652c1.187-1.101,2.142-2.484,2.864-4.154
			c0.725-1.671,1.086-3.176,1.086-4.516c0-1.338-0.254-2.338-0.764-3.004C300.536,58.79,299.869,58.458,299.045,58.458z"/>
	</g>
	<g>
		<g>
			
				<linearGradient id="SVGID_43_" gradientUnits="userSpaceOnUse" x1="-141.6475" y1="452.9424" x2="-140.6474" y2="451.9423" gradientTransform="matrix(36.081 0 0 -41.292 5218.7544 18742.1914)">
				<stop  offset="0" style="stop-color:#FAC100"/>
				<stop  offset="0.5" style="stop-color:#FF9400"/>
				<stop  offset="1" style="stop-color:#FD2704"/>
			</linearGradient>
			<path fill="url(#SVGID_43_)" d="M133.208,45.907c0-0.961-1.073-1.44-3.218-1.44c-0.914,0-1.939,0.337-3.075,1.009
				c-1.136,0.673-2.193,1.607-3.17,2.807c-0.978,1.196-1.854,2.549-2.627,4.057c-1.688,3.253-2.532,6.59-2.532,10.012
				c0,3.423,0.587,6.087,1.761,7.994c1.174,1.906,2.954,2.859,5.341,2.859c0.203,0,0.355-0.006,0.457-0.021
				c0.508-1.508,0.968-3.074,1.38-4.699c0.412-1.627,0.619-2.62,0.619-2.981c0-0.361-0.178-0.662-0.533-0.897
				s-0.749-0.397-1.181-0.485c-1.142-0.236-1.713-0.675-1.713-1.311c0-0.828,0.914-1.464,2.742-1.907
				c1.828-0.442,4.008-0.665,6.54-0.665c2.532,0,4.205,0.137,5.017,0.41c0.812,0.271,1.219,0.723,1.219,1.342
				c0,0.43-0.222,1.153-0.667,2.174c-0.445,1.021-1.174,3.488-2.189,7.404c-1.016,3.918-1.752,6.283-2.209,7.098
				c-0.749,1.346-1.888,2.354-3.417,3.025c-1.53,0.673-3.322,1.01-5.379,1.01c-3.77,0-5.655-0.467-5.655-1.396
				c0-0.621,0.476-1.25,1.428-1.887c1.091-0.736,1.91-1.561,2.456-2.461c0.229-0.396,0.45-0.855,0.667-1.375
				c-1.739,0.52-3.757,0.775-6.055,0.775c-2.298,0-4.307-0.291-6.026-0.877c-1.72-0.582-3.087-1.422-4.103-2.517
				c-1.968-2.112-2.951-4.981-2.951-8.604c0-2.128,0.362-4.213,1.085-6.253c0.723-2.04,1.701-3.888,2.932-5.543
				c1.231-1.654,2.666-3.186,4.303-4.59c1.638-1.404,3.364-2.587,5.179-3.548c3.846-2.011,7.647-3.017,11.405-3.017
				c3.757,0,6.559,0.658,8.406,1.975c1.847,1.313,2.771,3.156,2.771,5.521c0,1.375-0.527,2.661-1.58,3.858
				c-1.193,1.359-3.065,2.04-5.617,2.04c-0.863,0-1.599-0.142-2.208-0.421c-1.155-0.532-1.732-1.295-1.732-2.284
				c0-0.222,0.355-1.175,1.066-2.86C132.855,47.551,133.208,46.439,133.208,45.907z"/>
			
				<linearGradient id="SVGID_44_" gradientUnits="userSpaceOnUse" x1="-141.9463" y1="446.9131" x2="-140.9463" y2="445.9131" gradientTransform="matrix(38.272 0 0 -24.419 5575.1392 10966.7295)">
				<stop  offset="0" style="stop-color:#FAC100"/>
				<stop  offset="0.5" style="stop-color:#FF9400"/>
				<stop  offset="1" style="stop-color:#FD2704"/>
			</linearGradient>
			<path fill="url(#SVGID_44_)" d="M147.296,74.866c-2.386-1.671-3.579-4.205-3.579-7.604c0-1.774,0.314-3.438,0.942-5
				c0.628-1.561,1.491-2.908,2.589-4.047c1.098-1.139,2.376-2.114,3.836-2.928c2.919-1.642,6.264-2.461,10.034-2.461
				c7.413,0,11.417,2.734,12.015,8.203c0.891,0.342,1.807,0.512,2.75,0.512c0.945,0,1.736-0.08,2.371-0.244
				c0.637-0.161,1.234-0.405,1.799-0.73c0.565-0.324,0.971-0.488,1.209-0.488c0.482,0,0.728,0.273,0.728,0.82
				s-0.375,1.116-1.123,1.708c-1.408,1.123-3.273,1.685-5.599,1.685c-0.877,0-1.59-0.051-2.135-0.153
				c-0.404,3.726-2.057,6.821-4.949,9.291c-1.385,1.184-3.08,2.112-5.094,2.795c-2.014,0.68-4.093,1.021-6.246,1.021
				c-2.152,0-3.996-0.195-5.531-0.588C149.778,76.26,148.439,75.665,147.296,74.866z M154.208,69.212
				c0,2.733,0.857,4.103,2.57,4.103c1.092,0,2.11-0.693,3.056-2.084c0.945-1.39,1.684-3.111,2.209-5.166
				c0.525-2.056,0.791-4.15,0.791-6.287c0-2.137-0.645-3.204-1.926-3.204c-1.117,0-2.199,0.613-3.246,1.84
				c-1.047,1.229-1.885,2.82-2.513,4.778C154.522,65.15,154.208,67.157,154.208,69.212z"/>
			
				<linearGradient id="SVGID_45_" gradientUnits="userSpaceOnUse" x1="-141.7368" y1="451.5762" x2="-140.7368" y2="450.5761" gradientTransform="matrix(36.4343 0 0 -35.826 5340.8149 16219.6309)">
				<stop  offset="0" style="stop-color:#FAC100"/>
				<stop  offset="0.5" style="stop-color:#FF9400"/>
				<stop  offset="1" style="stop-color:#FD2704"/>
			</linearGradient>
			<path fill="url(#SVGID_45_)" d="M177.268,74.622c-0.317-0.177-0.479-0.547-0.479-1.106c0-0.559,0.389-1.765,1.161-3.604
				c0.772-1.842,1.384-2.762,1.827-2.762c0.254,0,0.646,0.203,1.182,0.609c0.533,0.405,1.15,0.897,1.855,1.475
				c0.703,0.576,1.469,1.146,2.293,1.707c2.006,1.391,3.955,2.084,5.848,2.084c0.938,0,1.609-0.221,2.02-0.664
				c0.406-0.443,0.607-0.892,0.607-1.342c0-0.451-0.217-0.961-0.646-1.529c-0.432-0.568-0.992-1.156-1.686-1.764
				c-0.691-0.605-1.455-1.244-2.293-1.918c-0.84-0.673-1.678-1.388-2.516-2.142s-1.603-1.508-2.285-2.263
				c-1.563-1.714-2.342-3.385-2.342-5.011c0-1.152,0.266-2.195,0.789-3.127c0.526-0.932,1.198-1.686,2.021-2.262
				c0.816-0.576,1.748-1.058,2.789-1.44c1.863-0.71,3.787-1.063,5.77-1.063c0.547,0,0.951,0.096,1.219,0.287
				c0.269,0.192,0.398,0.414,0.398,0.666s-0.094,0.631-0.283,1.142c-0.19,0.511-0.287,0.965-0.287,1.364
				c0,0.397,0.23,0.908,0.695,1.528c0.463,0.621,1.063,1.257,1.799,1.907s1.549,1.346,2.438,2.085
				c0.889,0.739,1.776,1.522,2.666,2.351c0.889,0.829,1.7,1.67,2.438,2.527c1.66,1.938,2.492,3.813,2.492,5.621
				c0,1.809-0.402,3.322-1.209,4.535s-1.926,2.148-3.359,2.814c-1.436,0.664-3.008,1.148-4.723,1.451s-3.803,0.453-6.266,0.453
				s-5.176-0.299-8.141-0.896C180.1,75.741,178.168,75.169,177.268,74.622z M208.795,52.915c-1.662-2.307-3.722-4.024-6.178-5.155
				c-2.455-1.132-5.018-1.696-7.684-1.696c-4.888,0-9.597,1.072-14.127,3.215c-0.609,0.281-1.041,0.422-1.295,0.422
				c-0.509,0-0.763-0.281-0.763-0.843c0-0.458,0.34-1.005,1.019-1.641c0.681-0.636,1.657-1.29,2.934-1.964
				c1.275-0.672,2.721-1.297,4.331-1.873c3.683-1.314,7.63-1.973,11.845-1.973c6.23,0,10.936,1.02,14.107,3.06
				c0.178,0.118,0.257,0.47,0.236,1.054c-0.02,0.584-0.25,1.48-0.693,2.693s-0.98,2.336-1.609,3.371
				c-0.627,1.035-1.164,1.552-1.605,1.552C209.195,52.988,209.023,52.915,208.795,52.915z"/>
			
				<linearGradient id="SVGID_46_" gradientUnits="userSpaceOnUse" x1="-142.127" y1="450.8594" x2="-141.127" y2="449.8594" gradientTransform="matrix(39.245 0 0 -33.796 5783.9907 15284.8525)">
				<stop  offset="0" style="stop-color:#FAC100"/>
				<stop  offset="0.5" style="stop-color:#FF9400"/>
				<stop  offset="1" style="stop-color:#FD2704"/>
			</linearGradient>
			<path fill="url(#SVGID_46_)" d="M220.695,43.513l8.721-0.066c0.293,0,0.529,0.107,0.715,0.321
				c0.186,0.215,0.275,0.565,0.275,1.053c0,0.488-0.262,1.919-0.781,4.291c-0.521,2.373-1.104,4.697-1.75,6.974
				c1.662-0.826,3.502-1.577,5.521-2.25c2.02-0.672,3.832-1.01,5.442-1.01c1.222,0,2.33,0.394,3.332,1.176
				c1.117,0.873,1.677,2.195,1.677,3.97c0,1.76-0.591,4.132-1.771,7.118c-1.182,2.986-1.771,4.893-1.771,5.721
				c0,1.213,0.502,1.818,1.506,1.818c1.979,0,4.221-0.748,6.722-2.24c0.381-0.236,0.69-0.354,0.934-0.354
				c0.521,0,0.779,0.27,0.779,0.81s-0.287,1.021-0.865,1.44c-0.578,0.422-1.305,0.873-2.181,1.354
				c-0.877,0.481-1.975,1.01-3.295,1.586c-3.084,1.346-6.377,2.019-9.881,2.019s-5.256-1.007-5.256-3.017
				c0-1.301,0.639-3.625,1.912-6.975c1.277-3.35,1.914-5.605,1.914-6.773c0-1.404-0.883-2.105-2.646-2.105
				c-0.979,0-1.94,0.177-2.896,0.531c-2.094,7.153-3.598,12.766-4.512,16.829c-0.063,0.281-0.207,0.488-0.429,0.621
				c-0.225,0.133-0.416,0.199-0.582,0.199l-9.805,0.242c-0.141,0-0.297-0.102-0.467-0.299c-0.172-0.199-0.258-0.446-0.258-0.742
				c0-0.295,0.41-1.781,1.229-4.457c0.819-2.676,1.721-5.58,2.705-8.715c0.982-3.133,1.885-6.395,2.701-9.777
				c0.818-3.387,1.229-5.906,1.229-7.563l-0.021-0.621C218.85,43.882,219.463,43.513,220.695,43.513z"/>
			
				<linearGradient id="SVGID_47_" gradientUnits="userSpaceOnUse" x1="-141.9463" y1="446.9131" x2="-140.9463" y2="445.9131" gradientTransform="matrix(38.272 0 0 -24.419 5679.1768 10966.7295)">
				<stop  offset="0" style="stop-color:#FAC100"/>
				<stop  offset="0.5" style="stop-color:#FF9400"/>
				<stop  offset="1" style="stop-color:#FD2704"/>
			</linearGradient>
			<path fill="url(#SVGID_47_)" d="M251.332,74.866c-2.389-1.671-3.58-4.205-3.58-7.604c0-1.774,0.313-3.438,0.941-5
				c0.629-1.561,1.492-2.908,2.59-4.047c1.098-1.139,2.377-2.114,3.838-2.928c2.918-1.642,6.264-2.461,10.031-2.461
				c7.414,0,11.418,2.734,12.016,8.203c0.891,0.342,1.809,0.512,2.752,0.512c0.944,0,1.734-0.08,2.371-0.244
				c0.633-0.161,1.232-0.405,1.799-0.73c0.563-0.324,0.969-0.488,1.209-0.488c0.481,0,0.725,0.273,0.725,0.82
				s-0.375,1.116-1.123,1.708c-1.407,1.123-3.272,1.685-5.6,1.685c-0.875,0-1.586-0.051-2.133-0.153
				c-0.404,3.726-2.057,6.821-4.947,9.291c-1.387,1.184-3.082,2.112-5.096,2.795c-2.013,0.68-4.095,1.021-6.246,1.021
				c-2.148,0-3.992-0.195-5.527-0.588C253.813,76.26,252.475,75.665,251.332,74.866z M258.242,69.212
				c0,2.733,0.855,4.103,2.57,4.103c1.092,0,2.108-0.693,3.056-2.084c0.944-1.39,1.683-3.111,2.21-5.166
				c0.525-2.056,0.789-4.15,0.789-6.287c0-2.137-0.641-3.204-1.924-3.204c-1.115,0-2.197,0.613-3.245,1.84
				c-1.048,1.229-1.886,2.82-2.515,4.778C258.557,65.15,258.242,67.157,258.242,69.212z"/>
			
				<linearGradient id="SVGID_48_" gradientUnits="userSpaceOnUse" x1="-142.252" y1="451.1426" x2="-141.2519" y2="450.1425" gradientTransform="matrix(41.453 0 0 -34.525 6171.2871 15630.6602)">
				<stop  offset="0" style="stop-color:#FAC100"/>
				<stop  offset="0.5" style="stop-color:#FF9400"/>
				<stop  offset="1" style="stop-color:#FD2704"/>
			</linearGradient>
			<path fill="url(#SVGID_48_)" d="M285.945,53.536l8.645-0.244c0.33,0,0.578,0.115,0.742,0.344
				c0.166,0.229,0.248,0.488,0.248,0.775c0,0.289-0.045,0.783-0.135,1.485c-0.088,0.702-0.133,1.216-0.133,1.541
				c2.336-3.074,5.451-4.612,9.349-4.612c2.374,0,4.243,0.707,5.606,2.118c1.364,1.411,2.048,3.411,2.048,5.998
				c0,5.025-1.694,9.136-5.085,12.329c3.936-0.326,6.956-1.176,9.063-2.551c0.697-0.458,1.214-0.688,1.542-0.688
				c0.434,0,0.647,0.271,0.647,0.818c0,0.385-0.235,0.774-0.704,1.176c-2.158,1.76-4.937,3.061-8.33,3.901
				c-3.396,0.843-7.049,1.265-10.958,1.265c-0.481,0.028-0.845,0.043-1.085,0.043c-1.346,0-2.691-0.234-4.035-0.709
				c-1.348-0.473-2.465-1.139-3.354-1.994c-0.875,3.117-1.313,6.719-1.313,10.801l0.021,0.643c0,0.738-0.615,1.109-1.85,1.109
				l-8.854,0.266c-0.306,0-0.547-0.106-0.726-0.322c-0.179-0.215-0.269-0.454-0.269-0.721c0-2.526,1.188-7.432,3.563-14.712
				c2.373-7.28,3.562-12.155,3.562-14.624l-0.076-1.84c0-0.547,0.117-0.95,0.354-1.209C284.666,53.665,285.17,53.536,285.945,53.536
				z M299.045,58.458c-2.387,0-4.379,2.127-5.979,6.386c-0.736,1.95-1.104,3.532-1.104,4.745c0,1.212,0.175,2.048,0.521,2.506
				c0.348,0.458,1.035,0.688,2.06,0.688c1.021,0,2.125-0.551,3.313-1.652c1.187-1.101,2.142-2.484,2.864-4.154
				c0.725-1.671,1.086-3.176,1.086-4.516c0-1.338-0.254-2.338-0.764-3.004C300.536,58.79,299.869,58.458,299.045,58.458z"/>
		</g>
	</g>
</g>
<g>
	<g opacity="0.75">
		
			<linearGradient id="SVGID_49_" gradientUnits="userSpaceOnUse" x1="-144.584" y1="457.5488" x2="-143.584" y2="456.5488" gradientTransform="matrix(150.0568 0 0 -89.9163 21699.6387 41144.0781)">
			<stop  offset="0" style="stop-color:#FAC100"/>
			<stop  offset="0.5" style="stop-color:#FF9400"/>
			<stop  offset="1" style="stop-color:#FD2704"/>
		</linearGradient>
		<path fill="url(#SVGID_49_)" d="M153.584,36.888c-0.45-4.11-4.68-7.141-9.305-7.145c-28.719-0.024-57.44-0.168-86.16-0.279
			c-5.571-0.021-11.141-0.06-16.71-0.147c-0.46-0.007-1.183-0.36-1.324-0.737c-0.666-1.775-1.22-3.6-1.721-5.433
			c-0.99-3.619-1.883-7.266-2.879-10.884c-1.637-5.94-5.351-9.164-11.494-9.109C18.923,3.199,13.854,3.196,8.786,3.148
			C6.372,3.126,4.534,3.94,3.589,6.366c0,0.66,0,1.319,0,1.979c0.912,2.542,2.833,3.339,5.28,3.327
			c5.069-0.024,10.137-0.013,15.206-0.004c1.693,0.003,2.329,0.55,2.795,2.236c1.392,5.044,2.794,10.084,4.204,15.123
			c1.409,5.039,2.836,10.073,4.247,15.111c1.323,4.722,2.635,9.447,3.952,14.17c1.531,5.492,3.082,10.979,4.586,16.477
			c0.875,3.201,1.678,6.422,2.533,9.703c0,0,3.06,8.572,13.237,8.572c24.264,0,47.582,0.01,71.846-0.002
			c6.744-0.002,10.571-3.5,12.133-9.808l1.083-4.183c0.396-1.709-5.188-2.979-6.914-0.041c0,0-0.726,1.736-0.982,2.289
			c-0.958,1.963-4.008,3.179-4.664,3.199c-3.504,0.129-7.017,0.063-10.771,0.063c0.002-0.015,0.004-0.024,0.006-0.039
			c-0.003,0-0.006,0-0.009,0c-0.46-0.017-0.89-0.037-1.296-0.065c-0.042-0.002-0.085-0.006-0.126-0.009
			c-0.391-0.028-0.755-0.063-1.094-0.104c-0.04-0.006-0.079-0.01-0.119-0.016c-0.337-0.043-0.651-0.093-0.936-0.146
			c-0.02-0.004-0.037-0.01-0.056-0.012c-0.292-0.062-0.559-0.125-0.794-0.195c-0.001,0-0.002,0-0.002-0.002
			c-0.228-0.068-0.423-0.146-0.599-0.229c-0.022-0.012-0.047-0.021-0.069-0.032c-0.16-0.08-0.294-0.166-0.407-0.26
			c-0.02-0.017-0.038-0.031-0.056-0.05c-0.104-0.094-0.187-0.19-0.244-0.297c-0.008-0.017-0.013-0.03-0.02-0.047
			c-0.052-0.111-0.085-0.229-0.085-0.354c0-0.104,0.011-0.211,0.033-0.315c0.002-0.013,0.007-0.021,0.01-0.033
			c0.021-0.097,0.049-0.19,0.088-0.287c0.001-0.004,0.002-0.006,0.003-0.008c0.086-0.211,0.214-0.425,0.384-0.638l0,0l-3.008-0.121
			c-0.12,0.804-0.235,1.608-0.358,2.412c-0.047,0.32-0.511,0.82-0.786,0.824c-3.963,0.043-7.927,0.016-11.892-0.004
			c-0.116-0.002-0.231-0.121-0.365-0.197c0-6.16,0-12.311,0-18.586c1.542,0,3.082,0,4.623,0c-0.03-0.444-0.048-0.901-0.048-1.372
			c0-2.344,0.398-4.639,1.195-6.885c0.042-0.119,0.094-0.229,0.138-0.349c-1.432,0-2.865,0-4.296,0c-0.493,0-0.985,0-1.614,0
			c0-6.449,0-12.66,0-18.983c6.442,0,12.848,0,19.535,0c-0.26,1.586-0.518,3.126-0.77,4.651c0.226-0.127,0.448-0.262,0.676-0.383
			c2.923-1.527,5.821-2.515,8.698-2.988c0.021-0.135,0.042-0.27,0.063-0.403c0.05-0.319,0.527-0.806,0.809-0.808
			c5.422-0.049,10.842-0.037,16.497-0.037c-0.281,1.143-0.834,3.393-0.834,3.393c0,2.977,8.413,2.094,8.725,0.957
			c0.247-0.902,0.403-1.625,0.403-1.625C153.604,39.611,153.729,38.212,153.584,36.888z M47.943,57.07
			c-1.764-6.325-3.536-12.678-5.349-19.178c1.705,0,3.376-0.005,5.046,0c4.521,0.017,9.042,0.056,13.562,0.041
			c0.894-0.003,1.249,0.253,1.349,1.24c0.298,2.946,0.693,5.885,1.118,8.817c0.395,2.728,0.878,5.44,1.312,8.162
			c0.042,0.268,0.005,0.551,0.005,0.917C59.33,57.07,53.732,57.07,47.943,57.07z M57.449,84.54
			c-1.295-0.037-2.231-0.813-2.588-2.271c-0.892-3.642-1.827-7.271-2.823-10.887c-0.513-1.859-1.19-3.675-1.872-5.744
			c0.941,0,1.569,0,2.198,0c4.195,0,8.393,0.022,12.589-0.021c0.946-0.013,1.334,0.194,1.446,1.274
			c0.364,3.504,0.842,6.996,1.338,10.484c0.249,1.746,0.643,3.473,0.943,5.213c0.103,0.594,0.124,1.201,0.201,1.979
			C64.916,84.573,61.18,84.637,57.449,84.54z M73.772,55.899c-0.425-3.689-0.88-7.379-1.412-11.054
			c-0.32-2.211-0.803-4.396-1.24-6.738c6.598,0,13.003,0,19.521,0c0,6.269,0,12.548,0,19.054c-3.032,0-5.99,0-8.949,0
			c-2.146,0-4.294-0.056-6.437,0.025C74.273,57.222,73.89,56.909,73.772,55.899z M90.673,84.516c-4.3,0-8.522,0-12.831,0
			c-0.943-6.242-1.883-12.464-2.839-18.797c5.338,0,10.464,0,15.67,0C90.673,71.997,90.673,78.219,90.673,84.516z"/>
	</g>
	<g>
		
			<linearGradient id="SVGID_50_" gradientUnits="userSpaceOnUse" x1="-144.584" y1="457.5488" x2="-143.584" y2="456.5488" gradientTransform="matrix(150.0568 0 0 -89.9163 21699.6387 41144.0781)">
			<stop  offset="0" style="stop-color:#FAC100"/>
			<stop  offset="0.5" style="stop-color:#FF9400"/>
			<stop  offset="1" style="stop-color:#FD2704"/>
		</linearGradient>
		<path fill="url(#SVGID_50_)" d="M153.584,36.888c-0.45-4.11-4.68-7.141-9.305-7.145c-28.719-0.024-57.44-0.168-86.16-0.279
			c-5.571-0.021-11.141-0.06-16.71-0.147c-0.46-0.007-1.183-0.36-1.324-0.737c-0.666-1.775-1.22-3.6-1.721-5.433
			c-0.99-3.619-1.883-7.266-2.879-10.884c-1.637-5.94-5.351-9.164-11.494-9.109C18.923,3.199,13.854,3.196,8.786,3.148
			C6.372,3.126,4.534,3.94,3.589,6.366c0,0.66,0,1.319,0,1.979c0.912,2.542,2.833,3.339,5.28,3.327
			c5.069-0.024,10.137-0.013,15.206-0.004c1.693,0.003,2.329,0.55,2.795,2.236c1.392,5.044,2.794,10.084,4.204,15.123
			c1.409,5.039,2.836,10.073,4.247,15.111c1.323,4.722,2.635,9.447,3.952,14.17c1.531,5.492,3.082,10.979,4.586,16.477
			c0.875,3.201,1.678,6.422,2.533,9.703c0,0,3.06,8.572,13.237,8.572c24.264,0,47.582,0.01,71.846-0.002
			c6.744-0.002,10.571-3.5,12.133-9.808l1.083-4.183c0.396-1.709-5.188-2.979-6.914-0.041c0,0-0.726,1.736-0.982,2.289
			c-0.958,1.963-4.008,3.179-4.664,3.199c-3.504,0.129-7.017,0.063-10.771,0.063c0.002-0.015,0.004-0.024,0.006-0.039
			c-0.003,0-0.006,0-0.009,0c-0.46-0.017-0.89-0.037-1.296-0.065c-0.042-0.002-0.085-0.006-0.126-0.009
			c-0.391-0.028-0.755-0.063-1.094-0.104c-0.04-0.006-0.079-0.01-0.119-0.016c-0.337-0.043-0.651-0.093-0.936-0.146
			c-0.02-0.004-0.037-0.01-0.056-0.012c-0.292-0.062-0.559-0.125-0.794-0.195c-0.001,0-0.002,0-0.002-0.002
			c-0.228-0.068-0.423-0.146-0.599-0.229c-0.022-0.012-0.047-0.021-0.069-0.032c-0.16-0.08-0.294-0.166-0.407-0.26
			c-0.02-0.017-0.038-0.031-0.056-0.05c-0.104-0.094-0.187-0.19-0.244-0.297c-0.008-0.017-0.013-0.03-0.02-0.047
			c-0.052-0.111-0.085-0.229-0.085-0.354c0-0.104,0.011-0.211,0.033-0.315c0.002-0.013,0.007-0.021,0.01-0.033
			c0.021-0.097,0.049-0.19,0.088-0.287c0.001-0.004,0.002-0.006,0.003-0.008c0.086-0.211,0.214-0.425,0.384-0.638l0,0l-3.008-0.121
			c-0.12,0.804-0.235,1.608-0.358,2.412c-0.047,0.32-0.511,0.82-0.786,0.824c-3.963,0.043-7.927,0.016-11.892-0.004
			c-0.116-0.002-0.231-0.121-0.365-0.197c0-6.16,0-12.311,0-18.586c1.542,0,3.082,0,4.623,0c-0.03-0.444-0.048-0.901-0.048-1.372
			c0-2.344,0.398-4.639,1.195-6.885c0.042-0.119,0.094-0.229,0.138-0.349c-1.432,0-2.865,0-4.296,0c-0.493,0-0.985,0-1.614,0
			c0-6.449,0-12.66,0-18.983c6.442,0,12.848,0,19.535,0c-0.26,1.586-0.518,3.126-0.77,4.651c0.226-0.127,0.448-0.262,0.676-0.383
			c2.923-1.527,5.821-2.515,8.698-2.988c0.021-0.135,0.042-0.27,0.063-0.403c0.05-0.319,0.527-0.806,0.809-0.808
			c5.422-0.049,10.842-0.037,16.497-0.037c-0.281,1.143-0.834,3.393-0.834,3.393c0,2.977,8.413,2.094,8.725,0.957
			c0.247-0.902,0.403-1.625,0.403-1.625C153.604,39.611,153.729,38.212,153.584,36.888z M47.943,57.07
			c-1.764-6.325-3.536-12.678-5.349-19.178c1.705,0,3.376-0.005,5.046,0c4.521,0.017,9.042,0.056,13.562,0.041
			c0.894-0.003,1.249,0.253,1.349,1.24c0.298,2.946,0.693,5.885,1.118,8.817c0.395,2.728,0.878,5.44,1.312,8.162
			c0.042,0.268,0.005,0.551,0.005,0.917C59.33,57.07,53.732,57.07,47.943,57.07z M57.449,84.54
			c-1.295-0.037-2.231-0.813-2.588-2.271c-0.892-3.642-1.827-7.271-2.823-10.887c-0.513-1.859-1.19-3.675-1.872-5.744
			c0.941,0,1.569,0,2.198,0c4.195,0,8.393,0.022,12.589-0.021c0.946-0.013,1.334,0.194,1.446,1.274
			c0.364,3.504,0.842,6.996,1.338,10.484c0.249,1.746,0.643,3.473,0.943,5.213c0.103,0.594,0.124,1.201,0.201,1.979
			C64.916,84.573,61.18,84.637,57.449,84.54z M73.772,55.899c-0.425-3.689-0.88-7.379-1.412-11.054
			c-0.32-2.211-0.803-4.396-1.24-6.738c6.598,0,13.003,0,19.521,0c0,6.269,0,12.548,0,19.054c-3.032,0-5.99,0-8.949,0
			c-2.146,0-4.294-0.056-6.437,0.025C74.273,57.222,73.89,56.909,73.772,55.899z M90.673,84.516c-4.3,0-8.522,0-12.831,0
			c-0.943-6.242-1.883-12.464-2.839-18.797c5.338,0,10.464,0,15.67,0C90.673,71.997,90.673,78.219,90.673,84.516z"/>
	</g>
</g>
</svg>
